<?xml version="1.0" encoding="UTF-8" standalone="no"?>
<svg width="238.831mm" height="157.692mm"
 viewBox="0 0 677 447"
 xmlns="http://www.w3.org/2000/svg" xmlns:xlink="http://www.w3.org/1999/xlink"  version="1.2" baseProfile="tiny">
<title>Qt SVG Document</title>
<desc>MATLAB, The MathWorks, Inc. Version 25.2.0.3177638 R2025b Update 5</desc>
<defs>
</defs>
<g fill="none" stroke="black" stroke-width="1" fill-rule="evenodd" stroke-linecap="square" stroke-linejoin="bevel" >

<g fill="#ffffff" fill-opacity="1" stroke="none" transform="matrix(0.75,0,0,0.75,-61.8,-20.9812)"
font-family="MS Shell Dlg 2" font-size="8.25" font-weight="400" font-style="normal"
>
<path vector-effect="none" fill-rule="evenodd" d="M81,26 L985,26 L985,623 L81,623 L81,26"/>
</g>

<g fill="#ffffff" fill-opacity="1" stroke="none" transform="matrix(7.5e-05,0,0,7.5e-05,-61.8,-20.9812)"
font-family="MS Shell Dlg 2" font-size="8.25" font-weight="400" font-style="normal"
>
<path vector-effect="none" fill-rule="evenodd" d="M1.4e+06,490000 L1.4e+06,5.76e+06 L9.72e+06,5.76e+06 L9.72e+06,490000 L1.4e+06,490000"/>
</g>

<g fill="#212121" fill-opacity="0.14902" stroke="#212121" stroke-opacity="0.14902" stroke-dasharray="1,3" stroke-dashoffset="0" stroke-width="1.33333" stroke-linecap="butt" stroke-linejoin="round" transform="matrix(0.75,0,0,0.75,-61.8,-20.9812)"
font-family="MS Shell Dlg 2" font-size="8.25" font-weight="400" font-style="normal"
>
<polyline fill="none" vector-effect="none" points="171.307,576 171.307,49 " />
<polyline fill="none" vector-effect="none" points="189.621,576 189.621,49 " />
<polyline fill="none" vector-effect="none" points="202.614,576 202.614,49 " />
<polyline fill="none" vector-effect="none" points="212.693,576 212.693,49 " />
<polyline fill="none" vector-effect="none" points="220.928,576 220.928,49 " />
<polyline fill="none" vector-effect="none" points="227.89,576 227.89,49 " />
<polyline fill="none" vector-effect="none" points="233.921,576 233.921,49 " />
<polyline fill="none" vector-effect="none" points="239.241,576 239.241,49 " />
<polyline fill="none" vector-effect="none" points="275.307,576 275.307,49 " />
<polyline fill="none" vector-effect="none" points="293.621,576 293.621,49 " />
<polyline fill="none" vector-effect="none" points="306.614,576 306.614,49 " />
<polyline fill="none" vector-effect="none" points="316.693,576 316.693,49 " />
<polyline fill="none" vector-effect="none" points="324.928,576 324.928,49 " />
<polyline fill="none" vector-effect="none" points="331.89,576 331.89,49 " />
<polyline fill="none" vector-effect="none" points="337.921,576 337.921,49 " />
<polyline fill="none" vector-effect="none" points="343.241,576 343.241,49 " />
<polyline fill="none" vector-effect="none" points="379.307,576 379.307,49 " />
<polyline fill="none" vector-effect="none" points="397.621,576 397.621,49 " />
<polyline fill="none" vector-effect="none" points="410.614,576 410.614,49 " />
<polyline fill="none" vector-effect="none" points="420.693,576 420.693,49 " />
<polyline fill="none" vector-effect="none" points="428.928,576 428.928,49 " />
<polyline fill="none" vector-effect="none" points="435.89,576 435.89,49 " />
<polyline fill="none" vector-effect="none" points="441.921,576 441.921,49 " />
<polyline fill="none" vector-effect="none" points="447.241,576 447.241,49 " />
<polyline fill="none" vector-effect="none" points="483.307,576 483.307,49 " />
<polyline fill="none" vector-effect="none" points="501.621,576 501.621,49 " />
<polyline fill="none" vector-effect="none" points="514.614,576 514.614,49 " />
<polyline fill="none" vector-effect="none" points="524.693,576 524.693,49 " />
<polyline fill="none" vector-effect="none" points="532.928,576 532.928,49 " />
<polyline fill="none" vector-effect="none" points="539.89,576 539.89,49 " />
<polyline fill="none" vector-effect="none" points="545.921,576 545.921,49 " />
<polyline fill="none" vector-effect="none" points="551.241,576 551.241,49 " />
<polyline fill="none" vector-effect="none" points="587.307,576 587.307,49 " />
<polyline fill="none" vector-effect="none" points="605.621,576 605.621,49 " />
<polyline fill="none" vector-effect="none" points="618.614,576 618.614,49 " />
<polyline fill="none" vector-effect="none" points="628.693,576 628.693,49 " />
<polyline fill="none" vector-effect="none" points="636.928,576 636.928,49 " />
<polyline fill="none" vector-effect="none" points="643.89,576 643.89,49 " />
<polyline fill="none" vector-effect="none" points="649.921,576 649.921,49 " />
<polyline fill="none" vector-effect="none" points="655.241,576 655.241,49 " />
<polyline fill="none" vector-effect="none" points="691.307,576 691.307,49 " />
<polyline fill="none" vector-effect="none" points="709.621,576 709.621,49 " />
<polyline fill="none" vector-effect="none" points="722.614,576 722.614,49 " />
<polyline fill="none" vector-effect="none" points="732.693,576 732.693,49 " />
<polyline fill="none" vector-effect="none" points="740.928,576 740.928,49 " />
<polyline fill="none" vector-effect="none" points="747.89,576 747.89,49 " />
<polyline fill="none" vector-effect="none" points="753.921,576 753.921,49 " />
<polyline fill="none" vector-effect="none" points="759.241,576 759.241,49 " />
<polyline fill="none" vector-effect="none" points="795.307,576 795.307,49 " />
<polyline fill="none" vector-effect="none" points="813.621,576 813.621,49 " />
<polyline fill="none" vector-effect="none" points="826.614,576 826.614,49 " />
<polyline fill="none" vector-effect="none" points="836.693,576 836.693,49 " />
<polyline fill="none" vector-effect="none" points="844.928,576 844.928,49 " />
<polyline fill="none" vector-effect="none" points="851.89,576 851.89,49 " />
<polyline fill="none" vector-effect="none" points="857.921,576 857.921,49 " />
<polyline fill="none" vector-effect="none" points="863.241,576 863.241,49 " />
<polyline fill="none" vector-effect="none" points="899.307,576 899.307,49 " />
<polyline fill="none" vector-effect="none" points="917.621,576 917.621,49 " />
<polyline fill="none" vector-effect="none" points="930.614,576 930.614,49 " />
<polyline fill="none" vector-effect="none" points="940.693,576 940.693,49 " />
<polyline fill="none" vector-effect="none" points="948.928,576 948.928,49 " />
<polyline fill="none" vector-effect="none" points="955.89,576 955.89,49 " />
<polyline fill="none" vector-effect="none" points="961.921,576 961.921,49 " />
<polyline fill="none" vector-effect="none" points="967.241,576 967.241,49 " />
</g>

<g fill="#212121" fill-opacity="0.14902" stroke="#212121" stroke-opacity="0.14902" stroke-width="1.33333" stroke-linecap="butt" stroke-linejoin="round" transform="matrix(0.75,0,0,0.75,-61.8,-20.9812)"
font-family="MS Shell Dlg 2" font-size="8.25" font-weight="400" font-style="normal"
>
<polyline fill="none" vector-effect="none" points="140,576 140,49 " />
<polyline fill="none" vector-effect="none" points="244,576 244,49 " />
<polyline fill="none" vector-effect="none" points="348,576 348,49 " />
<polyline fill="none" vector-effect="none" points="452,576 452,49 " />
<polyline fill="none" vector-effect="none" points="556,576 556,49 " />
<polyline fill="none" vector-effect="none" points="660,576 660,49 " />
<polyline fill="none" vector-effect="none" points="764,576 764,49 " />
<polyline fill="none" vector-effect="none" points="868,576 868,49 " />
<polyline fill="none" vector-effect="none" points="972,576 972,49 " />
<polyline fill="none" vector-effect="none" points="972,576 140,576 " />
<polyline fill="none" vector-effect="none" points="972,488.167 140,488.167 " />
<polyline fill="none" vector-effect="none" points="972,400.333 140,400.333 " />
<polyline fill="none" vector-effect="none" points="972,312.5 140,312.5 " />
<polyline fill="none" vector-effect="none" points="972,224.667 140,224.667 " />
<polyline fill="none" vector-effect="none" points="972,136.833 140,136.833 " />
<polyline fill="none" vector-effect="none" points="972,49 140,49 " />
</g>

<g fill="#212121" fill-opacity="1" stroke="#212121" stroke-opacity="1" stroke-width="1.33333" stroke-linecap="square" stroke-linejoin="round" transform="matrix(0.75,0,0,0.75,-61.8,-20.9812)"
font-family="MS Shell Dlg 2" font-size="8.25" font-weight="400" font-style="normal"
>
<polyline fill="none" vector-effect="none" points="140,576 972,576 " />
<polyline fill="none" vector-effect="none" points="140,49 972,49 " />
<polyline fill="none" vector-effect="none" points="140,576 140,567.68 " />
<polyline fill="none" vector-effect="none" points="244,576 244,567.68 " />
<polyline fill="none" vector-effect="none" points="348,576 348,567.68 " />
<polyline fill="none" vector-effect="none" points="452,576 452,567.68 " />
<polyline fill="none" vector-effect="none" points="556,576 556,567.68 " />
<polyline fill="none" vector-effect="none" points="660,576 660,567.68 " />
<polyline fill="none" vector-effect="none" points="764,576 764,567.68 " />
<polyline fill="none" vector-effect="none" points="868,576 868,567.68 " />
<polyline fill="none" vector-effect="none" points="972,576 972,567.68 " />
<polyline fill="none" vector-effect="none" points="140,49 140,57.32 " />
<polyline fill="none" vector-effect="none" points="244,49 244,57.32 " />
<polyline fill="none" vector-effect="none" points="348,49 348,57.32 " />
<polyline fill="none" vector-effect="none" points="452,49 452,57.32 " />
<polyline fill="none" vector-effect="none" points="556,49 556,57.32 " />
<polyline fill="none" vector-effect="none" points="660,49 660,57.32 " />
<polyline fill="none" vector-effect="none" points="764,49 764,57.32 " />
<polyline fill="none" vector-effect="none" points="868,49 868,57.32 " />
<polyline fill="none" vector-effect="none" points="972,49 972,57.32 " />
<polyline fill="none" vector-effect="none" points="140,576 140,571.84 " />
<polyline fill="none" vector-effect="none" points="171.307,576 171.307,571.84 " />
<polyline fill="none" vector-effect="none" points="189.621,576 189.621,571.84 " />
<polyline fill="none" vector-effect="none" points="202.614,576 202.614,571.84 " />
<polyline fill="none" vector-effect="none" points="212.693,576 212.693,571.84 " />
<polyline fill="none" vector-effect="none" points="220.928,576 220.928,571.84 " />
<polyline fill="none" vector-effect="none" points="227.89,576 227.89,571.84 " />
<polyline fill="none" vector-effect="none" points="233.921,576 233.921,571.84 " />
<polyline fill="none" vector-effect="none" points="239.241,576 239.241,571.84 " />
<polyline fill="none" vector-effect="none" points="244,576 244,571.84 " />
<polyline fill="none" vector-effect="none" points="275.307,576 275.307,571.84 " />
<polyline fill="none" vector-effect="none" points="293.621,576 293.621,571.84 " />
<polyline fill="none" vector-effect="none" points="306.614,576 306.614,571.84 " />
<polyline fill="none" vector-effect="none" points="316.693,576 316.693,571.84 " />
<polyline fill="none" vector-effect="none" points="324.928,576 324.928,571.84 " />
<polyline fill="none" vector-effect="none" points="331.89,576 331.89,571.84 " />
<polyline fill="none" vector-effect="none" points="337.921,576 337.921,571.84 " />
<polyline fill="none" vector-effect="none" points="343.241,576 343.241,571.84 " />
<polyline fill="none" vector-effect="none" points="348,576 348,571.84 " />
<polyline fill="none" vector-effect="none" points="379.307,576 379.307,571.84 " />
<polyline fill="none" vector-effect="none" points="397.621,576 397.621,571.84 " />
<polyline fill="none" vector-effect="none" points="410.614,576 410.614,571.84 " />
<polyline fill="none" vector-effect="none" points="420.693,576 420.693,571.84 " />
<polyline fill="none" vector-effect="none" points="428.928,576 428.928,571.84 " />
<polyline fill="none" vector-effect="none" points="435.89,576 435.89,571.84 " />
<polyline fill="none" vector-effect="none" points="441.921,576 441.921,571.84 " />
<polyline fill="none" vector-effect="none" points="447.241,576 447.241,571.84 " />
<polyline fill="none" vector-effect="none" points="452,576 452,571.84 " />
<polyline fill="none" vector-effect="none" points="483.307,576 483.307,571.84 " />
<polyline fill="none" vector-effect="none" points="501.621,576 501.621,571.84 " />
<polyline fill="none" vector-effect="none" points="514.614,576 514.614,571.84 " />
<polyline fill="none" vector-effect="none" points="524.693,576 524.693,571.84 " />
<polyline fill="none" vector-effect="none" points="532.928,576 532.928,571.84 " />
<polyline fill="none" vector-effect="none" points="539.89,576 539.89,571.84 " />
<polyline fill="none" vector-effect="none" points="545.921,576 545.921,571.84 " />
<polyline fill="none" vector-effect="none" points="551.241,576 551.241,571.84 " />
<polyline fill="none" vector-effect="none" points="556,576 556,571.84 " />
<polyline fill="none" vector-effect="none" points="587.307,576 587.307,571.84 " />
<polyline fill="none" vector-effect="none" points="605.621,576 605.621,571.84 " />
<polyline fill="none" vector-effect="none" points="618.614,576 618.614,571.84 " />
<polyline fill="none" vector-effect="none" points="628.693,576 628.693,571.84 " />
<polyline fill="none" vector-effect="none" points="636.928,576 636.928,571.84 " />
<polyline fill="none" vector-effect="none" points="643.89,576 643.89,571.84 " />
<polyline fill="none" vector-effect="none" points="649.921,576 649.921,571.84 " />
<polyline fill="none" vector-effect="none" points="655.241,576 655.241,571.84 " />
<polyline fill="none" vector-effect="none" points="660,576 660,571.84 " />
<polyline fill="none" vector-effect="none" points="691.307,576 691.307,571.84 " />
<polyline fill="none" vector-effect="none" points="709.621,576 709.621,571.84 " />
<polyline fill="none" vector-effect="none" points="722.614,576 722.614,571.84 " />
<polyline fill="none" vector-effect="none" points="732.693,576 732.693,571.84 " />
<polyline fill="none" vector-effect="none" points="740.928,576 740.928,571.84 " />
<polyline fill="none" vector-effect="none" points="747.89,576 747.89,571.84 " />
<polyline fill="none" vector-effect="none" points="753.921,576 753.921,571.84 " />
<polyline fill="none" vector-effect="none" points="759.241,576 759.241,571.84 " />
<polyline fill="none" vector-effect="none" points="764,576 764,571.84 " />
<polyline fill="none" vector-effect="none" points="795.307,576 795.307,571.84 " />
<polyline fill="none" vector-effect="none" points="813.621,576 813.621,571.84 " />
<polyline fill="none" vector-effect="none" points="826.614,576 826.614,571.84 " />
<polyline fill="none" vector-effect="none" points="836.693,576 836.693,571.84 " />
<polyline fill="none" vector-effect="none" points="844.928,576 844.928,571.84 " />
<polyline fill="none" vector-effect="none" points="851.89,576 851.89,571.84 " />
<polyline fill="none" vector-effect="none" points="857.921,576 857.921,571.84 " />
<polyline fill="none" vector-effect="none" points="863.241,576 863.241,571.84 " />
<polyline fill="none" vector-effect="none" points="868,576 868,571.84 " />
<polyline fill="none" vector-effect="none" points="899.307,576 899.307,571.84 " />
<polyline fill="none" vector-effect="none" points="917.621,576 917.621,571.84 " />
<polyline fill="none" vector-effect="none" points="930.614,576 930.614,571.84 " />
<polyline fill="none" vector-effect="none" points="940.693,576 940.693,571.84 " />
<polyline fill="none" vector-effect="none" points="948.928,576 948.928,571.84 " />
<polyline fill="none" vector-effect="none" points="955.89,576 955.89,571.84 " />
<polyline fill="none" vector-effect="none" points="961.921,576 961.921,571.84 " />
<polyline fill="none" vector-effect="none" points="967.241,576 967.241,571.84 " />
<polyline fill="none" vector-effect="none" points="972,576 972,571.84 " />
<polyline fill="none" vector-effect="none" points="140,49 140,53.16 " />
<polyline fill="none" vector-effect="none" points="171.307,49 171.307,53.16 " />
<polyline fill="none" vector-effect="none" points="189.621,49 189.621,53.16 " />
<polyline fill="none" vector-effect="none" points="202.614,49 202.614,53.16 " />
<polyline fill="none" vector-effect="none" points="212.693,49 212.693,53.16 " />
<polyline fill="none" vector-effect="none" points="220.928,49 220.928,53.16 " />
<polyline fill="none" vector-effect="none" points="227.89,49 227.89,53.16 " />
<polyline fill="none" vector-effect="none" points="233.921,49 233.921,53.16 " />
<polyline fill="none" vector-effect="none" points="239.241,49 239.241,53.16 " />
<polyline fill="none" vector-effect="none" points="244,49 244,53.16 " />
<polyline fill="none" vector-effect="none" points="275.307,49 275.307,53.16 " />
<polyline fill="none" vector-effect="none" points="293.621,49 293.621,53.16 " />
<polyline fill="none" vector-effect="none" points="306.614,49 306.614,53.16 " />
<polyline fill="none" vector-effect="none" points="316.693,49 316.693,53.16 " />
<polyline fill="none" vector-effect="none" points="324.928,49 324.928,53.16 " />
<polyline fill="none" vector-effect="none" points="331.89,49 331.89,53.16 " />
<polyline fill="none" vector-effect="none" points="337.921,49 337.921,53.16 " />
<polyline fill="none" vector-effect="none" points="343.241,49 343.241,53.16 " />
<polyline fill="none" vector-effect="none" points="348,49 348,53.16 " />
<polyline fill="none" vector-effect="none" points="379.307,49 379.307,53.16 " />
<polyline fill="none" vector-effect="none" points="397.621,49 397.621,53.16 " />
<polyline fill="none" vector-effect="none" points="410.614,49 410.614,53.16 " />
<polyline fill="none" vector-effect="none" points="420.693,49 420.693,53.16 " />
<polyline fill="none" vector-effect="none" points="428.928,49 428.928,53.16 " />
<polyline fill="none" vector-effect="none" points="435.89,49 435.89,53.16 " />
<polyline fill="none" vector-effect="none" points="441.921,49 441.921,53.16 " />
<polyline fill="none" vector-effect="none" points="447.241,49 447.241,53.16 " />
<polyline fill="none" vector-effect="none" points="452,49 452,53.16 " />
<polyline fill="none" vector-effect="none" points="483.307,49 483.307,53.16 " />
<polyline fill="none" vector-effect="none" points="501.621,49 501.621,53.16 " />
<polyline fill="none" vector-effect="none" points="514.614,49 514.614,53.16 " />
<polyline fill="none" vector-effect="none" points="524.693,49 524.693,53.16 " />
<polyline fill="none" vector-effect="none" points="532.928,49 532.928,53.16 " />
<polyline fill="none" vector-effect="none" points="539.89,49 539.89,53.16 " />
<polyline fill="none" vector-effect="none" points="545.921,49 545.921,53.16 " />
<polyline fill="none" vector-effect="none" points="551.241,49 551.241,53.16 " />
<polyline fill="none" vector-effect="none" points="556,49 556,53.16 " />
<polyline fill="none" vector-effect="none" points="587.307,49 587.307,53.16 " />
<polyline fill="none" vector-effect="none" points="605.621,49 605.621,53.16 " />
<polyline fill="none" vector-effect="none" points="618.614,49 618.614,53.16 " />
<polyline fill="none" vector-effect="none" points="628.693,49 628.693,53.16 " />
<polyline fill="none" vector-effect="none" points="636.928,49 636.928,53.16 " />
<polyline fill="none" vector-effect="none" points="643.89,49 643.89,53.16 " />
<polyline fill="none" vector-effect="none" points="649.921,49 649.921,53.16 " />
<polyline fill="none" vector-effect="none" points="655.241,49 655.241,53.16 " />
<polyline fill="none" vector-effect="none" points="660,49 660,53.16 " />
<polyline fill="none" vector-effect="none" points="691.307,49 691.307,53.16 " />
<polyline fill="none" vector-effect="none" points="709.621,49 709.621,53.16 " />
<polyline fill="none" vector-effect="none" points="722.614,49 722.614,53.16 " />
<polyline fill="none" vector-effect="none" points="732.693,49 732.693,53.16 " />
<polyline fill="none" vector-effect="none" points="740.928,49 740.928,53.16 " />
<polyline fill="none" vector-effect="none" points="747.89,49 747.89,53.16 " />
<polyline fill="none" vector-effect="none" points="753.921,49 753.921,53.16 " />
<polyline fill="none" vector-effect="none" points="759.241,49 759.241,53.16 " />
<polyline fill="none" vector-effect="none" points="764,49 764,53.16 " />
<polyline fill="none" vector-effect="none" points="795.307,49 795.307,53.16 " />
<polyline fill="none" vector-effect="none" points="813.621,49 813.621,53.16 " />
<polyline fill="none" vector-effect="none" points="826.614,49 826.614,53.16 " />
<polyline fill="none" vector-effect="none" points="836.693,49 836.693,53.16 " />
<polyline fill="none" vector-effect="none" points="844.928,49 844.928,53.16 " />
<polyline fill="none" vector-effect="none" points="851.89,49 851.89,53.16 " />
<polyline fill="none" vector-effect="none" points="857.921,49 857.921,53.16 " />
<polyline fill="none" vector-effect="none" points="863.241,49 863.241,53.16 " />
<polyline fill="none" vector-effect="none" points="868,49 868,53.16 " />
<polyline fill="none" vector-effect="none" points="899.307,49 899.307,53.16 " />
<polyline fill="none" vector-effect="none" points="917.621,49 917.621,53.16 " />
<polyline fill="none" vector-effect="none" points="930.614,49 930.614,53.16 " />
<polyline fill="none" vector-effect="none" points="940.693,49 940.693,53.16 " />
<polyline fill="none" vector-effect="none" points="948.928,49 948.928,53.16 " />
<polyline fill="none" vector-effect="none" points="955.89,49 955.89,53.16 " />
<polyline fill="none" vector-effect="none" points="961.921,49 961.921,53.16 " />
<polyline fill="none" vector-effect="none" points="967.241,49 967.241,53.16 " />
<polyline fill="none" vector-effect="none" points="972,49 972,53.16 " />
</g>

<g fill="#212121" fill-opacity="1" stroke="#212121" stroke-opacity="1" stroke-width="1" stroke-linecap="square" stroke-linejoin="bevel" transform="matrix(0.75,0,0,0.75,34.95,428.269)"
font-family="Arial" font-size="14" font-weight="400" font-style="normal"
>
<text fill="#212121" fill-opacity="1" stroke="none" xml:space="preserve" x="0" y="0" font-family="Arial" font-size="14" font-weight="400" font-style="normal"
 >10</text>
</g>

<g fill="#212121" fill-opacity="1" stroke="#212121" stroke-opacity="1" stroke-width="1" stroke-linecap="square" stroke-linejoin="bevel" transform="matrix(0.75,0,0,0.75,46.95,423.019)"
font-family="Arial" font-size="11" font-weight="400" font-style="normal"
>
<text fill="#212121" fill-opacity="1" stroke="none" xml:space="preserve" x="0" y="0" font-family="Arial" font-size="11" font-weight="400" font-style="normal"
 >1</text>
</g>

<g fill="#212121" fill-opacity="1" stroke="#212121" stroke-opacity="1" stroke-width="1" stroke-linecap="square" stroke-linejoin="bevel" transform="matrix(0.75,0,0,0.75,112.95,428.269)"
font-family="Arial" font-size="14" font-weight="400" font-style="normal"
>
<text fill="#212121" fill-opacity="1" stroke="none" xml:space="preserve" x="0" y="0" font-family="Arial" font-size="14" font-weight="400" font-style="normal"
 >10</text>
</g>

<g fill="#212121" fill-opacity="1" stroke="#212121" stroke-opacity="1" stroke-width="1" stroke-linecap="square" stroke-linejoin="bevel" transform="matrix(0.75,0,0,0.75,124.95,423.019)"
font-family="Arial" font-size="11" font-weight="400" font-style="normal"
>
<text fill="#212121" fill-opacity="1" stroke="none" xml:space="preserve" x="0" y="0" font-family="Arial" font-size="11" font-weight="400" font-style="normal"
 >2</text>
</g>

<g fill="#212121" fill-opacity="1" stroke="#212121" stroke-opacity="1" stroke-width="1" stroke-linecap="square" stroke-linejoin="bevel" transform="matrix(0.75,0,0,0.75,190.95,428.269)"
font-family="Arial" font-size="14" font-weight="400" font-style="normal"
>
<text fill="#212121" fill-opacity="1" stroke="none" xml:space="preserve" x="0" y="0" font-family="Arial" font-size="14" font-weight="400" font-style="normal"
 >10</text>
</g>

<g fill="#212121" fill-opacity="1" stroke="#212121" stroke-opacity="1" stroke-width="1" stroke-linecap="square" stroke-linejoin="bevel" transform="matrix(0.75,0,0,0.75,202.95,423.019)"
font-family="Arial" font-size="11" font-weight="400" font-style="normal"
>
<text fill="#212121" fill-opacity="1" stroke="none" xml:space="preserve" x="0" y="0" font-family="Arial" font-size="11" font-weight="400" font-style="normal"
 >3</text>
</g>

<g fill="#212121" fill-opacity="1" stroke="#212121" stroke-opacity="1" stroke-width="1" stroke-linecap="square" stroke-linejoin="bevel" transform="matrix(0.75,0,0,0.75,268.95,428.269)"
font-family="Arial" font-size="14" font-weight="400" font-style="normal"
>
<text fill="#212121" fill-opacity="1" stroke="none" xml:space="preserve" x="0" y="0" font-family="Arial" font-size="14" font-weight="400" font-style="normal"
 >10</text>
</g>

<g fill="#212121" fill-opacity="1" stroke="#212121" stroke-opacity="1" stroke-width="1" stroke-linecap="square" stroke-linejoin="bevel" transform="matrix(0.75,0,0,0.75,280.95,423.019)"
font-family="Arial" font-size="11" font-weight="400" font-style="normal"
>
<text fill="#212121" fill-opacity="1" stroke="none" xml:space="preserve" x="0" y="0" font-family="Arial" font-size="11" font-weight="400" font-style="normal"
 >4</text>
</g>

<g fill="#212121" fill-opacity="1" stroke="#212121" stroke-opacity="1" stroke-width="1" stroke-linecap="square" stroke-linejoin="bevel" transform="matrix(0.75,0,0,0.75,346.95,428.269)"
font-family="Arial" font-size="14" font-weight="400" font-style="normal"
>
<text fill="#212121" fill-opacity="1" stroke="none" xml:space="preserve" x="0" y="0" font-family="Arial" font-size="14" font-weight="400" font-style="normal"
 >10</text>
</g>

<g fill="#212121" fill-opacity="1" stroke="#212121" stroke-opacity="1" stroke-width="1" stroke-linecap="square" stroke-linejoin="bevel" transform="matrix(0.75,0,0,0.75,358.95,423.019)"
font-family="Arial" font-size="11" font-weight="400" font-style="normal"
>
<text fill="#212121" fill-opacity="1" stroke="none" xml:space="preserve" x="0" y="0" font-family="Arial" font-size="11" font-weight="400" font-style="normal"
 >5</text>
</g>

<g fill="#212121" fill-opacity="1" stroke="#212121" stroke-opacity="1" stroke-width="1" stroke-linecap="square" stroke-linejoin="bevel" transform="matrix(0.75,0,0,0.75,424.95,428.269)"
font-family="Arial" font-size="14" font-weight="400" font-style="normal"
>
<text fill="#212121" fill-opacity="1" stroke="none" xml:space="preserve" x="0" y="0" font-family="Arial" font-size="14" font-weight="400" font-style="normal"
 >10</text>
</g>

<g fill="#212121" fill-opacity="1" stroke="#212121" stroke-opacity="1" stroke-width="1" stroke-linecap="square" stroke-linejoin="bevel" transform="matrix(0.75,0,0,0.75,436.95,423.019)"
font-family="Arial" font-size="11" font-weight="400" font-style="normal"
>
<text fill="#212121" fill-opacity="1" stroke="none" xml:space="preserve" x="0" y="0" font-family="Arial" font-size="11" font-weight="400" font-style="normal"
 >6</text>
</g>

<g fill="#212121" fill-opacity="1" stroke="#212121" stroke-opacity="1" stroke-width="1" stroke-linecap="square" stroke-linejoin="bevel" transform="matrix(0.75,0,0,0.75,502.95,428.269)"
font-family="Arial" font-size="14" font-weight="400" font-style="normal"
>
<text fill="#212121" fill-opacity="1" stroke="none" xml:space="preserve" x="0" y="0" font-family="Arial" font-size="14" font-weight="400" font-style="normal"
 >10</text>
</g>

<g fill="#212121" fill-opacity="1" stroke="#212121" stroke-opacity="1" stroke-width="1" stroke-linecap="square" stroke-linejoin="bevel" transform="matrix(0.75,0,0,0.75,514.95,423.019)"
font-family="Arial" font-size="11" font-weight="400" font-style="normal"
>
<text fill="#212121" fill-opacity="1" stroke="none" xml:space="preserve" x="0" y="0" font-family="Arial" font-size="11" font-weight="400" font-style="normal"
 >7</text>
</g>

<g fill="#212121" fill-opacity="1" stroke="#212121" stroke-opacity="1" stroke-width="1" stroke-linecap="square" stroke-linejoin="bevel" transform="matrix(0.75,0,0,0.75,580.95,428.269)"
font-family="Arial" font-size="14" font-weight="400" font-style="normal"
>
<text fill="#212121" fill-opacity="1" stroke="none" xml:space="preserve" x="0" y="0" font-family="Arial" font-size="14" font-weight="400" font-style="normal"
 >10</text>
</g>

<g fill="#212121" fill-opacity="1" stroke="#212121" stroke-opacity="1" stroke-width="1" stroke-linecap="square" stroke-linejoin="bevel" transform="matrix(0.75,0,0,0.75,592.95,423.019)"
font-family="Arial" font-size="11" font-weight="400" font-style="normal"
>
<text fill="#212121" fill-opacity="1" stroke="none" xml:space="preserve" x="0" y="0" font-family="Arial" font-size="11" font-weight="400" font-style="normal"
 >8</text>
</g>

<g fill="#212121" fill-opacity="1" stroke="#212121" stroke-opacity="1" stroke-width="1" stroke-linecap="square" stroke-linejoin="bevel" transform="matrix(0.75,0,0,0.75,658.95,428.269)"
font-family="Arial" font-size="14" font-weight="400" font-style="normal"
>
<text fill="#212121" fill-opacity="1" stroke="none" xml:space="preserve" x="0" y="0" font-family="Arial" font-size="14" font-weight="400" font-style="normal"
 >10</text>
</g>

<g fill="#212121" fill-opacity="1" stroke="#212121" stroke-opacity="1" stroke-width="1" stroke-linecap="square" stroke-linejoin="bevel" transform="matrix(0.75,0,0,0.75,670.95,423.019)"
font-family="Arial" font-size="11" font-weight="400" font-style="normal"
>
<text fill="#212121" fill-opacity="1" stroke="none" xml:space="preserve" x="0" y="0" font-family="Arial" font-size="11" font-weight="400" font-style="normal"
 >9</text>
</g>

<g fill="#212121" fill-opacity="1" stroke="#212121" stroke-opacity="1" stroke-width="1" stroke-linecap="square" stroke-linejoin="bevel" transform="matrix(0.75,0,0,0.75,313.95,443.219)"
font-family="Arial" font-size="16" font-weight="400" font-style="normal"
>
<text fill="#212121" fill-opacity="1" stroke="none" xml:space="preserve" x="0" y="0" font-family="Arial" font-size="16" font-weight="400" font-style="normal"
 >Frequency (Hz)</text>
</g>

<g fill="#212121" fill-opacity="1" stroke="#212121" stroke-opacity="1" stroke-width="1.33333" stroke-linecap="square" stroke-linejoin="round" transform="matrix(0.75,0,0,0.75,-61.8,-20.9812)"
font-family="Arial" font-size="16" font-weight="400" font-style="normal"
>
<polyline fill="none" vector-effect="none" points="140,576 140,49 " />
<polyline fill="none" vector-effect="none" points="972,576 972,49 " />
<polyline fill="none" vector-effect="none" points="140,576 148.32,576 " />
<polyline fill="none" vector-effect="none" points="140,488.167 148.32,488.167 " />
<polyline fill="none" vector-effect="none" points="140,400.333 148.32,400.333 " />
<polyline fill="none" vector-effect="none" points="140,312.5 148.32,312.5 " />
<polyline fill="none" vector-effect="none" points="140,224.667 148.32,224.667 " />
<polyline fill="none" vector-effect="none" points="140,136.833 148.32,136.833 " />
<polyline fill="none" vector-effect="none" points="140,49 148.32,49 " />
<polyline fill="none" vector-effect="none" points="972,576 963.68,576 " />
<polyline fill="none" vector-effect="none" points="972,488.167 963.68,488.167 " />
<polyline fill="none" vector-effect="none" points="972,400.333 963.68,400.333 " />
<polyline fill="none" vector-effect="none" points="972,312.5 963.68,312.5 " />
<polyline fill="none" vector-effect="none" points="972,224.667 963.68,224.667 " />
<polyline fill="none" vector-effect="none" points="972,136.833 963.68,136.833 " />
<polyline fill="none" vector-effect="none" points="972,49 963.68,49 " />
</g>

<g fill="#212121" fill-opacity="1" stroke="#212121" stroke-opacity="1" stroke-width="1" stroke-linecap="square" stroke-linejoin="bevel" transform="matrix(0.75,0,0,0.75,17.25,414.769)"
font-family="Arial" font-size="14" font-weight="400" font-style="normal"
>
<text fill="#212121" fill-opacity="1" stroke="none" xml:space="preserve" x="0" y="0" font-family="Arial" font-size="14" font-weight="400" font-style="normal"
 >-300</text>
</g>

<g fill="#212121" fill-opacity="1" stroke="#212121" stroke-opacity="1" stroke-width="1" stroke-linecap="square" stroke-linejoin="bevel" transform="matrix(0.75,0,0,0.75,17.25,348.894)"
font-family="Arial" font-size="14" font-weight="400" font-style="normal"
>
<text fill="#212121" fill-opacity="1" stroke="none" xml:space="preserve" x="0" y="0" font-family="Arial" font-size="14" font-weight="400" font-style="normal"
 >-250</text>
</g>

<g fill="#212121" fill-opacity="1" stroke="#212121" stroke-opacity="1" stroke-width="1" stroke-linecap="square" stroke-linejoin="bevel" transform="matrix(0.75,0,0,0.75,17.25,283.019)"
font-family="Arial" font-size="14" font-weight="400" font-style="normal"
>
<text fill="#212121" fill-opacity="1" stroke="none" xml:space="preserve" x="0" y="0" font-family="Arial" font-size="14" font-weight="400" font-style="normal"
 >-200</text>
</g>

<g fill="#212121" fill-opacity="1" stroke="#212121" stroke-opacity="1" stroke-width="1" stroke-linecap="square" stroke-linejoin="bevel" transform="matrix(0.75,0,0,0.75,17.25,217.144)"
font-family="Arial" font-size="14" font-weight="400" font-style="normal"
>
<text fill="#212121" fill-opacity="1" stroke="none" xml:space="preserve" x="0" y="0" font-family="Arial" font-size="14" font-weight="400" font-style="normal"
 >-150</text>
</g>

<g fill="#212121" fill-opacity="1" stroke="#212121" stroke-opacity="1" stroke-width="1" stroke-linecap="square" stroke-linejoin="bevel" transform="matrix(0.75,0,0,0.75,17.25,151.269)"
font-family="Arial" font-size="14" font-weight="400" font-style="normal"
>
<text fill="#212121" fill-opacity="1" stroke="none" xml:space="preserve" x="0" y="0" font-family="Arial" font-size="14" font-weight="400" font-style="normal"
 >-100</text>
</g>

<g fill="#212121" fill-opacity="1" stroke="#212121" stroke-opacity="1" stroke-width="1" stroke-linecap="square" stroke-linejoin="bevel" transform="matrix(0.75,0,0,0.75,23.25,85.3938)"
font-family="Arial" font-size="14" font-weight="400" font-style="normal"
>
<text fill="#212121" fill-opacity="1" stroke="none" xml:space="preserve" x="0" y="0" font-family="Arial" font-size="14" font-weight="400" font-style="normal"
 >-50</text>
</g>

<g fill="#212121" fill-opacity="1" stroke="#212121" stroke-opacity="1" stroke-width="1" stroke-linecap="square" stroke-linejoin="bevel" transform="matrix(0.75,0,0,0.75,33,19.5188)"
font-family="Arial" font-size="14" font-weight="400" font-style="normal"
>
<text fill="#212121" fill-opacity="1" stroke="none" xml:space="preserve" x="0" y="0" font-family="Arial" font-size="14" font-weight="400" font-style="normal"
 >0</text>
</g>

<g fill="#212121" fill-opacity="1" stroke="#212121" stroke-opacity="1" stroke-width="1" stroke-linecap="square" stroke-linejoin="bevel" transform="matrix(0,-0.75,0.75,0,10.5,296.269)"
font-family="Arial" font-size="16" font-weight="400" font-style="normal"
>
<text fill="#212121" fill-opacity="1" stroke="none" xml:space="preserve" x="0" y="0" font-family="Arial" font-size="16" font-weight="400" font-style="normal"
 >Inversion-removed phase (deg)</text>
</g>

<g fill="#212121" fill-opacity="1" stroke="#212121" stroke-opacity="1" stroke-width="1" stroke-linecap="square" stroke-linejoin="bevel" transform="matrix(0.75,0,0,0.75,184.95,10.5)"
font-family="Arial" font-size="16" font-weight="700" font-style="normal"
>
<text fill="#212121" fill-opacity="1" stroke="none" xml:space="preserve" x="0" y="0" font-family="Arial" font-size="16" font-weight="700" font-style="normal"
 >OP27 SPICE macromodel smoke test: OP27_Cf3p455_Risky</text>
</g>

<g fill="none" stroke="#1171be" stroke-opacity="1" stroke-width="2" stroke-linecap="butt" stroke-linejoin="round" transform="matrix(0.75,0,0,0.75,-61.8,-20.9812)"
font-family="Arial" font-size="16" font-weight="700" font-style="normal"
>
<polyline fill="none" vector-effect="none" points="140,49.0008 140.52,49.0008 141.04,49.0009 141.56,49.0009 142.08,49.0009 142.6,49.0009 143.12,49.0009 143.64,49.0009 144.16,49.0009 144.68,49.0009 145.2,49.0009 145.72,49.001 146.24,49.001 146.76,49.001 147.28,49.001 147.8,49.001 148.32,49.001 148.84,49.001 149.36,49.001 149.88,49.0011 150.4,49.0011 150.92,49.0011 151.44,49.0011 151.96,49.0011 152.48,49.0011 153,49.0011 153.52,49.0011 154.04,49.0012 154.56,49.0012 155.08,49.0012 155.6,49.0012 156.12,49.0012 156.64,49.0012 157.16,49.0012 157.68,49.0013 158.2,49.0013 158.72,49.0013 159.24,49.0013 159.76,49.0013 160.28,49.0013 160.8,49.0014 161.32,49.0014 161.84,49.0014 162.36,49.0014 162.88,49.0014 163.4,49.0014 163.92,49.0014 164.44,49.0014 164.96,49.0015 165.48,49.0015 166,49.0015 166.52,49.0015 167.04,49.0015 167.56,49.0016 168.08,49.0016 168.6,49.0016 169.12,49.0016 169.64,49.0016 170.16,49.0017 170.68,49.0017 171.2,49.0017 171.72,49.0017 172.24,49.0017 172.76,49.0018 173.28,49.0018 173.8,49.0018 174.32,49.0018 174.84,49.0018 175.36,49.0019 175.88,49.0019 176.4,49.0019 176.92,49.0019 177.44,49.0019 177.96,49.0019 178.48,49.002 179,49.002 179.52,49.002 180.04,49.002 180.56,49.0021 181.08,49.0021 181.6,49.0021 182.12,49.0021 182.64,49.0022 183.16,49.0022 183.68,49.0022 184.2,49.0023 184.72,49.0023 185.24,49.0023 185.76,49.0023 186.28,49.0024 186.8,49.0024 187.32,49.0024 187.84,49.0024 188.36,49.0025 188.88,49.0025 189.4,49.0025 189.92,49.0025 190.44,49.0026 190.96,49.0026 191.48,49.0026 192,49.0027 192.52,49.0027 193.04,49.0027 193.56,49.0028 194.08,49.0028 194.6,49.0028 195.12,49.0029 195.64,49.0029 196.16,49.0029 196.68,49.003 197.2,49.003 197.72,49.003 198.24,49.0031 198.76,49.0031 199.28,49.0031 199.8,49.0032 200.32,49.0032 200.84,49.0033 201.36,49.0033 201.88,49.0033 202.4,49.0034 202.92,49.0034 203.44,49.0035 203.96,49.0035 204.48,49.0035 205,49.0036 205.52,49.0036 206.04,49.0036 206.56,49.0037 207.08,49.0037 207.6,49.0038 208.12,49.0038 208.64,49.0039 209.16,49.0039 209.68,49.004 210.2,49.004 210.72,49.0041 211.24,49.0041 211.76,49.0041 212.28,49.0042 212.8,49.0042 213.32,49.0043 213.84,49.0043 214.36,49.0044 214.88,49.0044 215.4,49.0045 215.92,49.0046 216.44,49.0046 216.96,49.0047 217.48,49.0047 218,49.0047 218.52,49.0048 219.04,49.0049 219.56,49.0049 220.08,49.005 220.6,49.005 221.12,49.0051 221.64,49.0051 222.16,49.0052 222.68,49.0053 223.2,49.0053 223.72,49.0054 224.24,49.0055 224.76,49.0055 225.28,49.0056 225.8,49.0057 226.32,49.0057 226.84,49.0058 227.36,49.0058 227.88,49.0059 228.4,49.006 228.92,49.0061 229.44,49.0061 229.96,49.0062 230.48,49.0063 231,49.0063 231.52,49.0064 232.04,49.0065 232.56,49.0066 233.08,49.0067 233.6,49.0067 234.12,49.0068 234.64,49.0069 235.16,49.0069 235.68,49.007 236.2,49.0071 236.72,49.0072 237.24,49.0073 237.76,49.0074 238.28,49.0074 238.8,49.0075 239.32,49.0076 239.84,49.0077 240.36,49.0078 240.88,49.0079 241.4,49.008 241.92,49.0081 242.44,49.0082 242.96,49.0083 243.48,49.0084 244,49.0084 244.52,49.0085 245.04,49.0087 245.56,49.0088 246.08,49.0089 246.6,49.009 247.12,49.0091 247.64,49.0092 248.16,49.0093 248.68,49.0094 249.2,49.0095 249.72,49.0096 250.24,49.0097 250.76,49.0098 251.28,49.0099 251.8,49.0101 252.32,49.0102 252.84,49.0103 253.36,49.0104 253.88,49.0105 254.4,49.0106 254.92,49.0108 255.44,49.0109 255.96,49.011 256.48,49.0112 257,49.0113 257.52,49.0114 258.04,49.0116 258.56,49.0117 259.08,49.0118 259.6,49.0119 260.12,49.0121 260.64,49.0122 261.16,49.0124 261.68,49.0125 262.2,49.0127 262.72,49.0128 263.24,49.0129 263.76,49.0131 264.28,49.0133 264.8,49.0134 265.32,49.0136 265.84,49.0137 266.36,49.0139 266.88,49.014 267.4,49.0142 267.92,49.0144 268.44,49.0145 268.96,49.0147 269.48,49.0149 270,49.015 270.52,49.0152 271.04,49.0154 271.56,49.0156 272.08,49.0158 272.6,49.0159 273.12,49.0161 273.64,49.0163 274.16,49.0165 274.68,49.0167 275.2,49.0169 275.72,49.0171 276.24,49.0173 276.76,49.0175 277.28,49.0177 277.8,49.0179 278.32,49.0181 278.84,49.0183 279.36,49.0185 279.88,49.0187 280.4,49.0189 280.92,49.0192 281.44,49.0194 281.96,49.0196 282.48,49.0198 283,49.0201 283.52,49.0203 284.04,49.0205 284.56,49.0208 285.08,49.021 285.6,49.0213 286.12,49.0215 286.64,49.0217 287.16,49.022 287.68,49.0222 288.2,49.0225 288.72,49.0228 289.24,49.023 289.76,49.0233 290.28,49.0236 290.8,49.0238 291.32,49.0241 291.84,49.0244 292.36,49.0247 292.88,49.025 293.4,49.0253 293.92,49.0255 294.44,49.0259 294.96,49.0261 295.48,49.0264 296,49.0268 296.52,49.0271 297.04,49.0274 297.56,49.0277 298.08,49.028 298.6,49.0283 299.12,49.0287 299.64,49.029 300.16,49.0293 300.68,49.0297 301.2,49.03 301.72,49.0304 302.24,49.0307 302.76,49.0311 303.28,49.0314 303.8,49.0318 304.32,49.0322 304.84,49.0325 305.36,49.0329 305.88,49.0333 306.4,49.0337 306.92,49.0341 307.44,49.0345 307.96,49.0349 308.48,49.0353 309,49.0357 309.52,49.0361 310.04,49.0365 310.56,49.0369 311.08,49.0373 311.6,49.0378 312.12,49.0382 312.64,49.0387 313.16,49.0391 313.68,49.0396 314.2,49.04 314.72,49.0405 315.24,49.041 315.76,49.0414 316.28,49.0419 316.8,49.0424 317.32,49.0429 317.84,49.0434 318.36,49.0439 318.88,49.0444 319.4,49.0449 319.92,49.0455 320.44,49.046 320.96,49.0465 321.48,49.047 322,49.0476 322.52,49.0481 323.04,49.0487 323.56,49.0493 324.08,49.0498 324.6,49.0504 325.12,49.051 325.64,49.0516 326.16,49.0522 326.68,49.0528 327.2,49.0534 327.72,49.054 328.24,49.0546 328.76,49.0553 329.28,49.0559 329.8,49.0565 330.32,49.0572 330.84,49.0579 331.36,49.0585 331.88,49.0592 332.4,49.0599 332.92,49.0606 333.44,49.0613 333.96,49.062 334.48,49.0627 335,49.0634 335.52,49.0642 336.04,49.0649 336.56,49.0657 337.08,49.0664 337.6,49.0672 338.12,49.068 338.64,49.0688 339.16,49.0696 339.68,49.0704 340.2,49.0712 340.72,49.072 341.24,49.0728 341.76,49.0737 342.28,49.0745 342.8,49.0754 343.32,49.0763 343.84,49.0772 344.36,49.0781 344.88,49.079 345.4,49.0799 345.92,49.0808 346.44,49.0817 346.96,49.0827 347.48,49.0836 348,49.0846 348.52,49.0856 349.04,49.0866 349.56,49.0876 350.08,49.0886 350.6,49.0896 351.12,49.0907 351.64,49.0917 352.16,49.0928 352.68,49.0939 353.2,49.0949 353.72,49.096 354.24,49.0972 354.76,49.0983 355.28,49.0994 355.8,49.1005 356.32,49.1017 356.84,49.1029 357.36,49.1041 357.88,49.1053 358.4,49.1065 358.92,49.1077 359.44,49.109 359.96,49.1103 360.48,49.1115 361,49.1128 361.52,49.1142 362.04,49.1155 362.56,49.1168 363.08,49.1181 363.6,49.1195 364.12,49.1209 364.64,49.1223 365.16,49.1237 365.68,49.1251 366.2,49.1266 366.72,49.1281 367.24,49.1295 367.76,49.1311 368.28,49.1326 368.8,49.1341 369.32,49.1356 369.84,49.1372 370.36,49.1388 370.88,49.1404 371.4,49.142 371.92,49.1437 372.44,49.1453 372.96,49.147 373.48,49.1487 374,49.1505 374.52,49.1522 375.04,49.154 375.56,49.1557 376.08,49.1576 376.6,49.1594 377.12,49.1612 377.64,49.1631 378.16,49.165 378.68,49.1669 379.2,49.1688 379.72,49.1708 380.24,49.1728 380.76,49.1747 381.28,49.1768 381.8,49.1788 382.32,49.1809 382.84,49.183 383.36,49.1851 383.88,49.1872 384.4,49.1894 384.92,49.1916 385.44,49.1938 385.96,49.1961 386.48,49.1983 387,49.2006 387.52,49.2029 388.04,49.2053 388.56,49.2077 389.08,49.2101 389.6,49.2125 390.12,49.215 390.64,49.2175 391.16,49.22 391.68,49.2226 392.2,49.2251 392.72,49.2277 393.24,49.2304 393.76,49.233 394.28,49.2357 394.8,49.2385 395.32,49.2412 395.84,49.244 396.36,49.2468 396.88,49.2497 397.4,49.2526 397.92,49.2555 398.44,49.2585 398.96,49.2615 399.48,49.2645 400,49.2676 400.52,49.2706 401.04,49.2738 401.56,49.277 402.08,49.2802 402.6,49.2834 403.12,49.2867 403.64,49.29 404.16,49.2934 404.68,49.2968 405.2,49.3002 405.72,49.3037 406.24,49.3072 406.76,49.3108 407.28,49.3144 407.8,49.318 408.32,49.3217 408.84,49.3254 409.36,49.3292 409.88,49.333 410.4,49.3368 410.92,49.3408 411.44,49.3447 411.96,49.3487 412.48,49.3527 413,49.3568 413.52,49.3609 414.04,49.3651 414.56,49.3693 415.08,49.3736 415.6,49.3779 416.12,49.3823 416.64,49.3867 417.16,49.3912 417.68,49.3958 418.2,49.4003 418.72,49.405 419.24,49.4097 419.76,49.4144 420.28,49.4192 420.8,49.4241 421.32,49.429 421.84,49.4339 422.36,49.4389 422.88,49.444 423.4,49.4492 423.92,49.4544 424.44,49.4596 424.96,49.465 425.48,49.4704 426,49.4758 426.52,49.4813 427.04,49.4869 427.56,49.4925 428.08,49.4982 428.6,49.504 429.12,49.5098 429.64,49.5157 430.16,49.5217 430.68,49.5277 431.2,49.5338 431.72,49.54 432.24,49.5463 432.76,49.5526 433.28,49.559 433.8,49.5655 434.32,49.572 434.84,49.5787 435.36,49.5854 435.88,49.5921 436.4,49.599 436.92,49.6059 437.44,49.613 437.96,49.62 438.48,49.6272 439,49.6345 439.52,49.6418 440.04,49.6493 440.56,49.6568 441.08,49.6644 441.6,49.6721 442.12,49.6799 442.64,49.6878 443.16,49.6957 443.68,49.7038 444.2,49.7119 444.72,49.7202 445.24,49.7285 445.76,49.7369 446.28,49.7455 446.8,49.7541 447.32,49.7628 447.84,49.7717 448.36,49.7806 448.88,49.7897 449.4,49.7988 449.92,49.808 450.44,49.8174 450.96,49.8268 451.48,49.8364 452,49.8461 452.52,49.8559 453.04,49.8658 453.56,49.8759 454.08,49.886 454.6,49.8963 455.12,49.9066 455.64,49.9171 456.16,49.9277 456.68,49.9385 457.2,49.9494 457.72,49.9604 458.24,49.9715 458.76,49.9827 459.28,49.9941 459.8,50.0056 460.32,50.0173 460.84,50.029 461.36,50.041 461.88,50.053 462.4,50.0652 462.92,50.0775 463.44,50.09 463.96,50.1026 464.48,50.1154 465,50.1283 465.52,50.1414 466.04,50.1546 466.56,50.168 467.08,50.1815 467.6,50.1952 468.12,50.2091 468.64,50.223 469.16,50.2372 469.68,50.2515 470.2,50.266 470.72,50.2807 471.24,50.2955 471.76,50.3105 472.28,50.3257 472.8,50.3411 473.32,50.3566 473.84,50.3723 474.36,50.3882 474.88,50.4043 475.4,50.4206 475.92,50.437 476.44,50.4536 476.96,50.4705 477.48,50.4875 478,50.5047 478.52,50.5221 479.04,50.5398 479.56,50.5576 480.08,50.5757 480.6,50.5939 481.12,50.6124 481.64,50.6311 482.16,50.6499 482.68,50.6691 483.2,50.6884 483.72,50.7079 484.24,50.7277 484.76,50.7477 485.28,50.768 485.8,50.7885 486.32,50.8092 486.84,50.8301 487.36,50.8513 487.88,50.8728 488.4,50.8944 488.92,50.9164 489.44,50.9386 489.96,50.961 490.48,50.9838 491,51.0067 491.52,51.03 492.04,51.0535 492.56,51.0773 493.08,51.1013 493.6,51.1257 494.12,51.1503 494.64,51.1752 495.16,51.2004 495.68,51.2259 496.2,51.2517 496.72,51.2778 497.24,51.3042 497.76,51.3309 498.28,51.3579 498.8,51.3852 499.32,51.4128 499.84,51.4407 500.36,51.4691 500.88,51.4976 501.4,51.5266 501.92,51.5558 502.44,51.5855 502.96,51.6154 503.48,51.6457 504,51.6764 504.52,51.7074 505.04,51.7388 505.56,51.7705 506.08,51.8026 506.6,51.8351 507.12,51.8679 507.64,51.9011 508.16,51.9348 508.68,51.9687 509.2,52.0032 509.72,52.038 510.24,52.0732 510.76,52.1088 511.28,52.1448 511.8,52.1812 512.32,52.2181 512.84,52.2554 513.36,52.2931 513.88,52.3313 514.4,52.3699 514.92,52.409 515.44,52.4485 515.96,52.4885 516.48,52.5289 517,52.5698 517.52,52.6112 518.04,52.653 518.56,52.6954 519.08,52.7382 519.6,52.7816 520.12,52.8254 520.64,52.8698 521.16,52.9146 521.68,52.96 522.2,53.0059 522.72,53.0524 523.24,53.0993 523.76,53.1469 524.28,53.195 524.8,53.2436 525.32,53.2928 525.84,53.3426 526.36,53.393 526.88,53.4439 527.4,53.4955 527.92,53.5476 528.44,53.6004 528.96,53.6537 529.48,53.7077 530,53.7623 530.52,53.8176 531.04,53.8735 531.56,53.93 532.08,53.9872 532.6,54.0451 533.12,54.1036 533.64,54.1628 534.16,54.2228 534.68,54.2834 535.2,54.3447 535.72,54.4067 536.24,54.4695 536.76,54.533 537.28,54.5972 537.8,54.6622 538.32,54.7279 538.84,54.7944 539.36,54.8617 539.88,54.9298 540.4,54.9986 540.92,55.0683 541.44,55.1388 541.96,55.2101 542.48,55.2822 543,55.3552 543.52,55.4291 544.04,55.5037 544.56,55.5793 545.08,55.6558 545.6,55.7332 546.12,55.8114 546.64,55.8906 547.16,55.9707 547.68,56.0517 548.2,56.1337 548.72,56.2167 549.24,56.3006 549.76,56.3855 550.28,56.4714 550.8,56.5583 551.32,56.6462 551.84,56.7352 552.36,56.8252 552.88,56.9163 553.4,57.0084 553.92,57.1016 554.44,57.196 554.96,57.2914 555.48,57.3879 556,57.4856 556.52,57.5845 557.04,57.6845 557.56,57.7856 558.08,57.8881 558.6,57.9916 559.12,58.0964 559.64,58.2025 560.16,58.3098 560.68,58.4183 561.2,58.5282 561.72,58.6394 562.24,58.7518 562.76,58.8656 563.28,58.9808 563.8,59.0973 564.32,59.2152 564.84,59.3345 565.36,59.4552 565.88,59.5773 566.4,59.7009 566.92,59.826 567.44,59.9526 567.96,60.0806 568.48,60.2103 569,60.3414 569.52,60.4741 570.04,60.6084 570.56,60.7443 571.08,60.8818 571.6,61.021 572.12,61.1618 572.64,61.3043 573.16,61.4486 573.68,61.5945 574.2,61.7423 574.72,61.8918 575.24,62.0431 575.76,62.1962 576.28,62.3511 576.8,62.5079 577.32,62.6667 577.84,62.8273 578.36,62.9899 578.88,63.1545 579.4,63.3211 579.92,63.4897 580.44,63.6603 580.96,63.833 581.48,64.0078 582,64.1847 582.52,64.3638 583.04,64.5451 583.56,64.7287 584.08,64.9144 584.6,65.1024 585.12,65.2928 585.64,65.4855 586.16,65.6805 586.68,65.878 587.2,66.0779 587.72,66.2803 588.24,66.4852 588.76,66.6926 589.28,66.9026 589.8,67.1152 590.32,67.3304 590.84,67.5484 591.36,67.7691 591.88,67.9925 592.4,68.2187 592.92,68.4478 593.44,68.6797 593.96,68.9146 594.48,69.1525 595,69.3933 595.52,69.6372 596.04,69.8842 596.56,70.1344 597.08,70.3877 597.6,70.6442 598.12,70.9041 598.64,71.1673 599.16,71.4338 599.68,71.7038 600.2,71.9773 600.72,72.2543 601.24,72.535 601.76,72.8192 602.28,73.1072 602.8,73.3989 603.32,73.6945 603.84,73.9939 604.36,74.2972 604.88,74.6046 605.4,74.9161 605.92,75.2316 606.44,75.5514 606.96,75.8754 607.48,76.2038 608,76.5366 608.52,76.8738 609.04,77.2156 609.56,77.562 610.08,77.9131 610.6,78.269 611.12,78.6298 611.64,78.9955 612.16,79.3662 612.68,79.742 613.2,80.123 613.72,80.5094 614.24,80.9011 614.76,81.2982 615.28,81.701 615.8,82.1094 616.32,82.5236 616.84,82.9436 617.36,83.3697 617.88,83.8018 618.4,84.2401 618.92,84.6847 619.44,85.1357 619.96,85.5933 620.48,86.0575 621,86.5285 621.52,87.0064 622.04,87.4914 622.56,87.9835 623.08,88.483 623.6,88.9899 624.12,89.5043 624.64,90.0265 625.16,90.5566 625.68,91.0947 626.2,91.641 626.72,92.1957 627.24,92.7589 627.76,93.3308 628.28,93.9115 628.8,94.5012 629.32,95.1002 629.84,95.7086 630.36,96.3265 630.88,96.9542 631.4,97.5919 631.92,98.2398 632.44,98.8981 632.96,99.5669 633.48,100.247 634,100.937 634.52,101.639 635.04,102.353 635.56,103.078 636.08,103.815 636.6,104.564 637.12,105.326 637.64,106.101 638.16,106.888 638.68,107.689 639.2,108.503 639.72,109.331 640.24,110.173 640.76,111.029 641.28,111.901 641.8,112.786 642.32,113.688 642.84,114.604 643.36,115.537 643.88,116.486 644.4,117.451 644.92,118.433 645.44,119.432 645.96,120.448 646.48,121.482 647,122.534 647.52,123.605 648.04,124.694 648.56,125.802 649.08,126.929 649.6,128.076 650.12,129.243 650.64,130.43 651.16,131.638 651.68,132.866 652.2,134.116 652.72,135.386 653.24,136.679 653.76,137.993 654.28,139.329 654.8,140.688 655.32,142.069 655.84,143.473 656.36,144.899 656.88,146.348 657.4,147.821 657.92,149.316 658.44,150.835 658.96,152.376 659.48,153.941 660,155.529 660.52,157.139 661.04,158.772 661.56,160.428 662.08,162.106 662.6,163.806 663.12,165.528 663.64,167.271 664.16,169.034 664.68,170.818 665.2,172.622 665.72,174.445 666.24,176.286 666.76,178.144 667.28,180.02 667.8,181.912 668.32,183.818 668.84,185.739 669.36,187.673 669.88,189.619 670.4,191.577 670.92,193.544 671.44,195.519 671.96,197.503 672.48,199.492 673,201.486 673.52,203.485 674.04,205.485 674.56,207.487 675.08,209.488 675.6,211.487 676.12,213.484 676.64,215.477 677.16,217.464 677.68,219.445 678.2,221.417 678.72,223.38 679.24,225.334 679.76,227.275 680.28,229.204 680.8,231.12 681.32,233.021 681.84,234.906 682.36,236.776 682.88,238.628 683.4,240.462 683.92,242.277 684.44,244.073 684.96,245.849 685.48,247.605 686,249.34 686.52,251.053 687.04,252.745 687.56,254.414 688.08,256.061 688.6,257.686 689.12,259.287 689.64,260.866 690.16,262.422 690.68,263.955 691.2,265.464 691.72,266.951 692.24,268.414 692.76,269.855 693.28,271.272 693.8,272.667 694.32,274.039 694.84,275.389 695.36,276.717 695.88,278.023 696.4,279.307 696.92,280.569 697.44,281.811 697.96,283.031 698.48,284.231 699,285.41 699.52,286.569 700.04,287.709 700.56,288.828 701.08,289.929 701.6,291.011 702.12,292.074 702.64,293.119 703.16,294.147 703.68,295.156 704.2,296.148 704.72,297.124 705.24,298.083 705.76,299.025 706.28,299.951 706.8,300.862 707.32,301.757 707.84,302.638 708.36,303.503 708.88,304.354 709.4,305.19 709.92,306.013 710.44,306.822 710.96,307.618 711.48,308.4 712,309.17 712.52,309.927 713.04,310.671 713.56,311.404 714.08,312.124 714.6,312.833 715.12,313.531 715.64,314.217 716.16,314.893 716.68,315.557 717.2,316.212 717.72,316.856 718.24,317.489 718.76,318.113 719.28,318.728 719.8,319.332 720.32,319.928 720.84,320.514 721.36,321.091 721.88,321.66 722.4,322.22 722.92,322.771 723.44,323.314 723.96,323.849 724.48,324.376 725,324.895 725.52,325.407 726.04,325.911 726.56,326.407 727.08,326.897 727.6,327.379 728.12,327.854 728.64,328.323 729.16,328.784 729.68,329.239 730.2,329.688 730.72,330.13 731.24,330.566 731.76,330.996 732.28,331.419 732.8,331.837 733.32,332.249 733.84,332.655 734.36,333.056 734.88,333.451 735.4,333.84 735.92,334.225 736.44,334.604 736.96,334.978 737.48,335.346 738,335.71 738.52,336.069 739.04,336.423 739.56,336.772 740.08,337.117 740.6,337.457 741.12,337.793 741.64,338.124 742.16,338.45 742.68,338.773 743.2,339.091 743.72,339.405 744.24,339.715 744.76,340.02 745.28,340.322 745.8,340.62 746.32,340.914 746.84,341.204 747.36,341.491 747.88,341.774 748.4,342.053 748.92,342.329 749.44,342.601 749.96,342.87 750.48,343.135 751,343.397 751.52,343.655 752.04,343.911 752.56,344.163 753.08,344.412 753.6,344.657 754.12,344.9 754.64,345.14 755.16,345.376 755.68,345.61 756.2,345.841 756.72,346.069 757.24,346.294 757.76,346.517 758.28,346.736 758.8,346.953 759.32,347.167 759.84,347.379 760.36,347.588 760.88,347.794 761.4,347.998 761.92,348.2 762.44,348.399 762.96,348.595 763.48,348.789 764,348.981 764.52,349.17 765.04,349.358 765.56,349.542 766.08,349.725 766.6,349.906 767.12,350.084 767.64,350.26 768.16,350.434 768.68,350.606 769.2,350.776 769.72,350.944 770.24,351.109 770.76,351.273 771.28,351.435 771.8,351.595 772.32,351.753 772.84,351.909 773.36,352.063 773.88,352.216 774.4,352.366 774.92,352.515 775.44,352.662 775.96,352.807 776.48,352.951 777,353.093 777.52,353.233 778.04,353.371 778.56,353.508 779.08,353.644 779.6,353.777 780.12,353.909 780.64,354.04 781.16,354.169 781.68,354.296 782.2,354.422 782.72,354.547 783.24,354.67 783.76,354.792 784.28,354.912 784.8,355.031 785.32,355.148 785.84,355.264 786.36,355.378 786.88,355.492 787.4,355.604 787.92,355.714 788.44,355.824 788.96,355.932 789.48,356.039 790,356.144 790.52,356.249 791.04,356.352 791.56,356.454 792.08,356.554 792.6,356.654 793.12,356.752 793.64,356.849 794.16,356.946 794.68,357.041 795.2,357.134 795.72,357.227 796.24,357.319 796.76,357.41 797.28,357.499 797.8,357.588 798.32,357.675 798.84,357.762 799.36,357.847 799.88,357.932 800.4,358.016 800.92,358.098 801.44,358.18 801.96,358.26 802.48,358.34 803,358.419 803.52,358.497 804.04,358.574 804.56,358.65 805.08,358.725 805.6,358.8 806.12,358.873 806.64,358.946 807.16,359.018 807.68,359.089 808.2,359.159 808.72,359.228 809.24,359.297 809.76,359.364 810.28,359.431 810.8,359.498 811.32,359.563 811.84,359.628 812.36,359.692 812.88,359.755 813.4,359.817 813.92,359.879 814.44,359.94 814.96,360 815.48,360.06 816,360.119 816.52,360.177 817.04,360.235 817.56,360.292 818.08,360.348 818.6,360.404 819.12,360.459 819.64,360.513 820.16,360.567 820.68,360.62 821.2,360.673 821.72,360.724 822.24,360.776 822.76,360.827 823.28,360.877 823.8,360.926 824.32,360.975 824.84,361.024 825.36,361.072 825.88,361.119 826.4,361.166 826.92,361.212 827.44,361.258 827.96,361.303 828.48,361.347 829,361.392 829.52,361.435 830.04,361.478 830.56,361.521 831.08,361.563 831.6,361.605 832.12,361.646 832.64,361.687 833.16,361.727 833.68,361.767 834.2,361.806 834.72,361.845 835.24,361.883 835.76,361.921 836.28,361.959 836.8,361.996 837.32,362.033 837.84,362.069 838.36,362.105 838.88,362.14 839.4,362.176 839.92,362.21 840.44,362.244 840.96,362.278 841.48,362.312 842,362.345 842.52,362.378 843.04,362.41 843.56,362.442 844.08,362.473 844.6,362.505 845.12,362.535 845.64,362.566 846.16,362.596 846.68,362.626 847.2,362.655 847.72,362.685 848.24,362.713 848.76,362.742 849.28,362.77 849.8,362.798 850.32,362.825 850.84,362.853 851.36,362.879 851.88,362.906 852.4,362.932 852.92,362.958 853.44,362.984 853.96,363.009 854.48,363.034 855,363.059 855.52,363.084 856.04,363.108 856.56,363.132 857.08,363.156 857.6,363.179 858.12,363.202 858.64,363.225 859.16,363.248 859.68,363.27 860.2,363.292 860.72,363.314 861.24,363.336 861.76,363.357 862.28,363.378 862.8,363.399 863.32,363.419 863.84,363.44 864.36,363.46 864.88,363.48 865.4,363.5 865.92,363.519 866.44,363.538 866.96,363.557 867.48,363.576 868,363.595 868.52,363.613 869.04,363.631 869.56,363.649 870.08,363.667 870.6,363.685 871.12,363.702 871.64,363.719 872.16,363.736 872.68,363.753 873.2,363.769 873.72,363.786 874.24,363.802 874.76,363.818 875.28,363.834 875.8,363.849 876.32,363.865 876.84,363.88 877.36,363.895 877.88,363.91 878.4,363.925 878.92,363.94 879.44,363.954 879.96,363.968 880.48,363.982 881,363.996 881.52,364.01 882.04,364.024 882.56,364.037 883.08,364.05 883.6,364.064 884.12,364.077 884.64,364.09 885.16,364.102 885.68,364.115 886.2,364.127 886.72,364.139 887.24,364.152 887.76,364.164 888.28,364.176 888.8,364.187 889.32,364.199 889.84,364.21 890.36,364.222 890.88,364.233 891.4,364.244 891.92,364.255 892.44,364.266 892.96,364.276 893.48,364.287 894,364.297 894.52,364.308 895.04,364.318 895.56,364.328 896.08,364.338 896.6,364.348 897.12,364.358 897.64,364.367 898.16,364.377 898.68,364.386 899.2,364.396 899.72,364.405 900.24,364.414 900.76,364.423 901.28,364.432 901.8,364.441 902.32,364.449 902.84,364.458 903.36,364.466 903.88,364.475 904.4,364.483 904.92,364.491 905.44,364.499 905.96,364.507 906.48,364.515 907,364.523 907.52,364.531 908.04,364.539 908.56,364.546 909.08,364.554 909.6,364.561 910.12,364.568 910.64,364.576 911.16,364.583 911.68,364.59 912.2,364.597 912.72,364.604 913.24,364.61 913.76,364.617 914.28,364.624 914.8,364.63 915.32,364.637 915.84,364.643 916.36,364.65 916.88,364.656 917.4,364.662 917.92,364.669 918.44,364.675 918.96,364.681 919.48,364.687 920,364.692 920.52,364.698 921.04,364.704 921.56,364.71 922.08,364.715 922.6,364.721 923.12,364.726 923.64,364.732 924.16,364.737 924.68,364.742 925.2,364.748 925.72,364.753 926.24,364.758 926.76,364.763 927.28,364.768 927.8,364.773 928.32,364.778 928.84,364.783 929.36,364.787 929.88,364.792 930.4,364.797 930.92,364.801 931.44,364.806 931.96,364.811 932.48,364.815 933,364.819 933.52,364.824 934.04,364.828 934.56,364.832 935.08,364.837 935.6,364.841 936.12,364.845 936.64,364.849 937.16,364.853 937.68,364.857 938.2,364.861 938.72,364.865 939.24,364.868 939.76,364.872 940.28,364.876 940.8,364.88 941.32,364.883 941.84,364.887 942.36,364.891 942.88,364.894 943.4,364.898 943.92,364.901 944.44,364.905 944.96,364.908 945.48,364.911 946,364.915 946.52,364.918 947.04,364.921 947.56,364.924 948.08,364.927 948.6,364.931 949.12,364.934 949.64,364.937 950.16,364.94 950.68,364.943 951.2,364.946 951.72,364.949 952.24,364.951 952.76,364.954 953.28,364.957 953.8,364.96 954.32,364.963 954.84,364.965 955.36,364.968 955.88,364.971 956.4,364.973 956.92,364.976 957.44,364.978 957.96,364.981 958.48,364.983 959,364.986 959.52,364.988 960.04,364.991 960.56,364.993 961.08,364.996 961.6,364.998 962.12,365 962.64,365.003 963.16,365.005 963.68,365.007 964.2,365.009 964.72,365.011 965.24,365.014 965.76,365.016 966.28,365.018 966.8,365.02 967.32,365.022 967.84,365.024 968.36,365.026 968.88,365.028 969.4,365.03 969.92,365.032 970.44,365.034 970.96,365.036 971.48,365.038 972,365.039 " />
</g>

<g fill="none" stroke="#dd5400" stroke-opacity="1" stroke-width="2" stroke-linecap="butt" stroke-linejoin="round" transform="matrix(0.75,0,0,0.75,-61.8,-20.9812)"
font-family="Arial" font-size="16" font-weight="700" font-style="normal"
>
<polyline fill="none" vector-effect="none" points="140,49.0003 140.52,49.0003 141.04,49.0003 141.56,49.0003 142.08,49.0003 142.6,49.0003 143.12,49.0004 143.64,49.0004 144.16,49.0004 144.68,49.0004 145.2,49.0004 145.72,49.0004 146.24,49.0004 146.76,49.0004 147.28,49.0004 147.8,49.0004 148.32,49.0004 148.84,49.0004 149.36,49.0004 149.88,49.0004 150.4,49.0004 150.92,49.0004 151.44,49.0004 151.96,49.0004 152.48,49.0004 153,49.0004 153.52,49.0005 154.04,49.0005 154.56,49.0005 155.08,49.0005 155.6,49.0005 156.12,49.0005 156.64,49.0005 157.16,49.0005 157.68,49.0005 158.2,49.0005 158.72,49.0005 159.24,49.0005 159.76,49.0005 160.28,49.0005 160.8,49.0005 161.32,49.0005 161.84,49.0006 162.36,49.0006 162.88,49.0006 163.4,49.0006 163.92,49.0006 164.44,49.0006 164.96,49.0006 165.48,49.0006 166,49.0006 166.52,49.0006 167.04,49.0006 167.56,49.0006 168.08,49.0006 168.6,49.0006 169.12,49.0007 169.64,49.0007 170.16,49.0007 170.68,49.0007 171.2,49.0007 171.72,49.0007 172.24,49.0007 172.76,49.0007 173.28,49.0007 173.8,49.0007 174.32,49.0007 174.84,49.0007 175.36,49.0008 175.88,49.0008 176.4,49.0008 176.92,49.0008 177.44,49.0008 177.96,49.0008 178.48,49.0008 179,49.0008 179.52,49.0008 180.04,49.0008 180.56,49.0008 181.08,49.0008 181.6,49.0008 182.12,49.0009 182.64,49.0009 183.16,49.0009 183.68,49.0009 184.2,49.0009 184.72,49.0009 185.24,49.0009 185.76,49.0009 186.28,49.0009 186.8,49.001 187.32,49.001 187.84,49.001 188.36,49.001 188.88,49.001 189.4,49.001 189.92,49.001 190.44,49.001 190.96,49.0011 191.48,49.0011 192,49.0011 192.52,49.0011 193.04,49.0011 193.56,49.0011 194.08,49.0011 194.6,49.0011 195.12,49.0012 195.64,49.0012 196.16,49.0012 196.68,49.0012 197.2,49.0012 197.72,49.0012 198.24,49.0012 198.76,49.0013 199.28,49.0013 199.8,49.0013 200.32,49.0013 200.84,49.0013 201.36,49.0013 201.88,49.0014 202.4,49.0014 202.92,49.0014 203.44,49.0014 203.96,49.0014 204.48,49.0014 205,49.0014 205.52,49.0014 206.04,49.0015 206.56,49.0015 207.08,49.0015 207.6,49.0015 208.12,49.0015 208.64,49.0016 209.16,49.0016 209.68,49.0016 210.2,49.0016 210.72,49.0016 211.24,49.0017 211.76,49.0017 212.28,49.0017 212.8,49.0017 213.32,49.0017 213.84,49.0018 214.36,49.0018 214.88,49.0018 215.4,49.0018 215.92,49.0018 216.44,49.0019 216.96,49.0019 217.48,49.0019 218,49.0019 218.52,49.0019 219.04,49.0019 219.56,49.002 220.08,49.002 220.6,49.002 221.12,49.002 221.64,49.0021 222.16,49.0021 222.68,49.0021 223.2,49.0021 223.72,49.0022 224.24,49.0022 224.76,49.0022 225.28,49.0023 225.8,49.0023 226.32,49.0023 226.84,49.0023 227.36,49.0024 227.88,49.0024 228.4,49.0024 228.92,49.0024 229.44,49.0025 229.96,49.0025 230.48,49.0025 231,49.0025 231.52,49.0026 232.04,49.0026 232.56,49.0026 233.08,49.0027 233.6,49.0027 234.12,49.0027 234.64,49.0028 235.16,49.0028 235.68,49.0028 236.2,49.0029 236.72,49.0029 237.24,49.0029 237.76,49.003 238.28,49.003 238.8,49.003 239.32,49.0031 239.84,49.0031 240.36,49.0031 240.88,49.0032 241.4,49.0032 241.92,49.0033 242.44,49.0033 242.96,49.0033 243.48,49.0034 244,49.0034 244.52,49.0035 245.04,49.0035 245.56,49.0035 246.08,49.0036 246.6,49.0036 247.12,49.0036 247.64,49.0037 248.16,49.0037 248.68,49.0038 249.2,49.0038 249.72,49.0039 250.24,49.0039 250.76,49.004 251.28,49.004 251.8,49.0041 252.32,49.0041 252.84,49.0041 253.36,49.0042 253.88,49.0042 254.4,49.0043 254.92,49.0043 255.44,49.0044 255.96,49.0044 256.48,49.0045 257,49.0046 257.52,49.0046 258.04,49.0047 258.56,49.0047 259.08,49.0048 259.6,49.0048 260.12,49.0049 260.64,49.0049 261.16,49.005 261.68,49.0051 262.2,49.0051 262.72,49.0051 263.24,49.0052 263.76,49.0053 264.28,49.0053 264.8,49.0054 265.32,49.0055 265.84,49.0055 266.36,49.0056 266.88,49.0057 267.4,49.0057 267.92,49.0058 268.44,49.0058 268.96,49.0059 269.48,49.006 270,49.0061 270.52,49.0061 271.04,49.0062 271.56,49.0063 272.08,49.0063 272.6,49.0064 273.12,49.0065 273.64,49.0066 274.16,49.0067 274.68,49.0067 275.2,49.0068 275.72,49.0069 276.24,49.007 276.76,49.007 277.28,49.0071 277.8,49.0072 278.32,49.0073 278.84,49.0074 279.36,49.0074 279.88,49.0075 280.4,49.0076 280.92,49.0077 281.44,49.0078 281.96,49.0079 282.48,49.008 283,49.0081 283.52,49.0082 284.04,49.0083 284.56,49.0084 285.08,49.0084 285.6,49.0086 286.12,49.0087 286.64,49.0088 287.16,49.0089 287.68,49.009 288.2,49.0091 288.72,49.0092 289.24,49.0093 289.76,49.0094 290.28,49.0095 290.8,49.0096 291.32,49.0097 291.84,49.0098 292.36,49.01 292.88,49.0101 293.4,49.0102 293.92,49.0103 294.44,49.0104 294.96,49.0105 295.48,49.0106 296,49.0108 296.52,49.0109 297.04,49.011 297.56,49.0112 298.08,49.0113 298.6,49.0114 299.12,49.0116 299.64,49.0117 300.16,49.0118 300.68,49.012 301.2,49.0121 301.72,49.0122 302.24,49.0124 302.76,49.0125 303.28,49.0127 303.8,49.0128 304.32,49.013 304.84,49.0131 305.36,49.0133 305.88,49.0134 306.4,49.0136 306.92,49.0137 307.44,49.0139 307.96,49.014 308.48,49.0142 309,49.0144 309.52,49.0145 310.04,49.0147 310.56,49.0149 311.08,49.015 311.6,49.0152 312.12,49.0154 312.64,49.0156 313.16,49.0158 313.68,49.016 314.2,49.0161 314.72,49.0163 315.24,49.0165 315.76,49.0167 316.28,49.0169 316.8,49.0171 317.32,49.0173 317.84,49.0175 318.36,49.0177 318.88,49.0179 319.4,49.0181 319.92,49.0183 320.44,49.0185 320.96,49.0187 321.48,49.0189 322,49.0192 322.52,49.0194 323.04,49.0196 323.56,49.0199 324.08,49.0201 324.6,49.0203 325.12,49.0205 325.64,49.0208 326.16,49.021 326.68,49.0213 327.2,49.0215 327.72,49.0218 328.24,49.022 328.76,49.0223 329.28,49.0225 329.8,49.0228 330.32,49.0231 330.84,49.0233 331.36,49.0236 331.88,49.0238 332.4,49.0241 332.92,49.0244 333.44,49.0247 333.96,49.025 334.48,49.0253 335,49.0256 335.52,49.0259 336.04,49.0262 336.56,49.0264 337.08,49.0268 337.6,49.0271 338.12,49.0274 338.64,49.0277 339.16,49.028 339.68,49.0284 340.2,49.0287 340.72,49.029 341.24,49.0293 341.76,49.0297 342.28,49.03 342.8,49.0304 343.32,49.0307 343.84,49.0311 344.36,49.0314 344.88,49.0318 345.4,49.0322 345.92,49.0325 346.44,49.0329 346.96,49.0333 347.48,49.0337 348,49.0341 348.52,49.0345 349.04,49.0349 349.56,49.0353 350.08,49.0357 350.6,49.0361 351.12,49.0365 351.64,49.0369 352.16,49.0374 352.68,49.0378 353.2,49.0383 353.72,49.0387 354.24,49.0391 354.76,49.0396 355.28,49.0401 355.8,49.0405 356.32,49.041 356.84,49.0415 357.36,49.0419 357.88,49.0424 358.4,49.0429 358.92,49.0434 359.44,49.0439 359.96,49.0444 360.48,49.0449 361,49.0455 361.52,49.046 362.04,49.0465 362.56,49.0471 363.08,49.0476 363.6,49.0482 364.12,49.0487 364.64,49.0493 365.16,49.0499 365.68,49.0504 366.2,49.051 366.72,49.0516 367.24,49.0522 367.76,49.0528 368.28,49.0534 368.8,49.054 369.32,49.0547 369.84,49.0553 370.36,49.0559 370.88,49.0566 371.4,49.0572 371.92,49.0579 372.44,49.0586 372.96,49.0592 373.48,49.0599 374,49.0606 374.52,49.0613 375.04,49.062 375.56,49.0628 376.08,49.0635 376.6,49.0642 377.12,49.065 377.64,49.0657 378.16,49.0665 378.68,49.0672 379.2,49.068 379.72,49.0688 380.24,49.0696 380.76,49.0704 381.28,49.0712 381.8,49.0721 382.32,49.0729 382.84,49.0737 383.36,49.0746 383.88,49.0755 384.4,49.0763 384.92,49.0772 385.44,49.0781 385.96,49.079 386.48,49.0799 387,49.0808 387.52,49.0818 388.04,49.0827 388.56,49.0837 389.08,49.0847 389.6,49.0856 390.12,49.0866 390.64,49.0876 391.16,49.0886 391.68,49.0896 392.2,49.0907 392.72,49.0918 393.24,49.0928 393.76,49.0939 394.28,49.095 394.8,49.0961 395.32,49.0972 395.84,49.0983 396.36,49.0994 396.88,49.1006 397.4,49.1018 397.92,49.1029 398.44,49.1041 398.96,49.1054 399.48,49.1065 400,49.1078 400.52,49.109 401.04,49.1103 401.56,49.1116 402.08,49.1129 402.6,49.1142 403.12,49.1155 403.64,49.1169 404.16,49.1182 404.68,49.1196 405.2,49.1209 405.72,49.1223 406.24,49.1238 406.76,49.1252 407.28,49.1267 407.8,49.1281 408.32,49.1296 408.84,49.1311 409.36,49.1326 409.88,49.1342 410.4,49.1357 410.92,49.1373 411.44,49.1389 411.96,49.1405 412.48,49.1421 413,49.1437 413.52,49.1454 414.04,49.1471 414.56,49.1488 415.08,49.1505 415.6,49.1523 416.12,49.154 416.64,49.1558 417.16,49.1576 417.68,49.1594 418.2,49.1613 418.72,49.1632 419.24,49.165 419.76,49.167 420.28,49.1689 420.8,49.1708 421.32,49.1728 421.84,49.1748 422.36,49.1768 422.88,49.1789 423.4,49.181 423.92,49.1831 424.44,49.1852 424.96,49.1873 425.48,49.1895 426,49.1917 426.52,49.1939 427.04,49.1962 427.56,49.1984 428.08,49.2007 428.6,49.203 429.12,49.2054 429.64,49.2078 430.16,49.2102 430.68,49.2126 431.2,49.2151 431.72,49.2176 432.24,49.2201 432.76,49.2226 433.28,49.2252 433.8,49.2278 434.32,49.2305 434.84,49.2331 435.36,49.2358 435.88,49.2386 436.4,49.2413 436.92,49.2441 437.44,49.247 437.96,49.2498 438.48,49.2527 439,49.2556 439.52,49.2586 440.04,49.2616 440.56,49.2646 441.08,49.2677 441.6,49.2708 442.12,49.2739 442.64,49.2771 443.16,49.2803 443.68,49.2835 444.2,49.2868 444.72,49.2901 445.24,49.2935 445.76,49.2969 446.28,49.3003 446.8,49.3038 447.32,49.3073 447.84,49.3109 448.36,49.3145 448.88,49.3181 449.4,49.3218 449.92,49.3256 450.44,49.3293 450.96,49.3331 451.48,49.337 452,49.3409 452.52,49.3448 453.04,49.3488 453.56,49.3528 454.08,49.3569 454.6,49.3611 455.12,49.3653 455.64,49.3695 456.16,49.3738 456.68,49.3781 457.2,49.3825 457.72,49.3869 458.24,49.3914 458.76,49.3959 459.28,49.4005 459.8,49.4051 460.32,49.4098 460.84,49.4146 461.36,49.4194 461.88,49.4242 462.4,49.4291 462.92,49.4341 463.44,49.4391 463.96,49.4442 464.48,49.4494 465,49.4546 465.52,49.4598 466.04,49.4651 466.56,49.4705 467.08,49.476 467.6,49.4815 468.12,49.4871 468.64,49.4927 469.16,49.4984 469.68,49.5042 470.2,49.51 470.72,49.5159 471.24,49.5219 471.76,49.528 472.28,49.5341 472.8,49.5402 473.32,49.5465 473.84,49.5528 474.36,49.5593 474.88,49.5657 475.4,49.5723 475.92,49.5789 476.44,49.5856 476.96,49.5924 477.48,49.5992 478,49.6062 478.52,49.6132 479.04,49.6203 479.56,49.6275 480.08,49.6347 480.6,49.6421 481.12,49.6495 481.64,49.657 482.16,49.6647 482.68,49.6724 483.2,49.6801 483.72,49.688 484.24,49.696 484.76,49.704 485.28,49.7122 485.8,49.7204 486.32,49.7288 486.84,49.7372 487.36,49.7457 487.88,49.7544 488.4,49.7631 488.92,49.772 489.44,49.7809 489.96,49.7899 490.48,49.7991 491,49.8083 491.52,49.8177 492.04,49.8272 492.56,49.8367 493.08,49.8465 493.6,49.8563 494.12,49.8661 494.64,49.8762 495.16,49.8863 495.68,49.8966 496.2,49.907 496.72,49.9175 497.24,49.9281 497.76,49.9389 498.28,49.9497 498.8,49.9607 499.32,49.9718 499.84,49.9831 500.36,49.9945 500.88,50.006 501.4,50.0176 501.92,50.0294 502.44,50.0414 502.96,50.0534 503.48,50.0656 504,50.078 504.52,50.0904 505.04,50.1031 505.56,50.1158 506.08,50.1287 506.6,50.1418 507.12,50.155 507.64,50.1684 508.16,50.182 508.68,50.1956 509.2,50.2095 509.72,50.2235 510.24,50.2377 510.76,50.252 511.28,50.2665 511.8,50.2811 512.32,50.296 512.84,50.311 513.36,50.3262 513.88,50.3415 514.4,50.357 514.92,50.3728 515.44,50.3886 515.96,50.4047 516.48,50.421 517,50.4375 517.52,50.4541 518.04,50.4709 518.56,50.488 519.08,50.5052 519.6,50.5226 520.12,50.5403 520.64,50.5581 521.16,50.5761 521.68,50.5944 522.2,50.6129 522.72,50.6315 523.24,50.6504 523.76,50.6695 524.28,50.6888 524.8,50.7084 525.32,50.7282 525.84,50.7482 526.36,50.7684 526.88,50.7889 527.4,50.8096 527.92,50.8306 528.44,50.8518 528.96,50.8732 529.48,50.8949 530,50.9169 530.52,50.9391 531.04,50.9615 531.56,50.9842 532.08,51.0072 532.6,51.0304 533.12,51.0539 533.64,51.0777 534.16,51.1018 534.68,51.1261 535.2,51.1508 535.72,51.1757 536.24,51.2008 536.76,51.2263 537.28,51.2521 537.8,51.2782 538.32,51.3045 538.84,51.3312 539.36,51.3582 539.88,51.3855 540.4,51.4132 540.92,51.4411 541.44,51.4694 541.96,51.4979 542.48,51.5269 543,51.5562 543.52,51.5857 544.04,51.6157 544.56,51.646 545.08,51.6766 545.6,51.7076 546.12,51.7389 546.64,51.7707 547.16,51.8027 547.68,51.8352 548.2,51.868 548.72,51.9012 549.24,51.9348 549.76,51.9688 550.28,52.0032 550.8,52.0379 551.32,52.0731 551.84,52.1087 552.36,52.1447 552.88,52.1811 553.4,52.2179 553.92,52.2552 554.44,52.2929 554.96,52.331 555.48,52.3696 556,52.4086 556.52,52.4481 557.04,52.488 557.56,52.5283 558.08,52.5692 558.6,52.6105 559.12,52.6523 559.64,52.6946 560.16,52.7374 560.68,52.7807 561.2,52.8244 561.72,52.8687 562.24,52.9135 562.76,52.9588 563.28,53.0046 563.8,53.051 564.32,53.0979 564.84,53.1454 565.36,53.1934 565.88,53.2419 566.4,53.291 566.92,53.3407 567.44,53.3909 567.96,53.4418 568.48,53.4932 569,53.5452 569.52,53.5978 570.04,53.6511 570.56,53.7049 571.08,53.7594 571.6,53.8145 572.12,53.8702 572.64,53.9266 573.16,53.9836 573.68,54.0414 574.2,54.0997 574.72,54.1587 575.24,54.2185 575.76,54.2789 576.28,54.34 576.8,54.4018 577.32,54.4643 577.84,54.5276 578.36,54.5916 578.88,54.6563 579.4,54.7218 579.92,54.788 580.44,54.855 580.96,54.9228 581.48,54.9914 582,55.0607 582.52,55.1309 583.04,55.2019 583.56,55.2737 584.08,55.3463 584.6,55.4197 585.12,55.494 585.64,55.5692 586.16,55.6453 586.68,55.7222 587.2,55.8 587.72,55.8787 588.24,55.9583 588.76,56.0389 589.28,56.1203 589.8,56.2028 590.32,56.2861 590.84,56.3705 591.36,56.4558 591.88,56.5421 592.4,56.6294 592.92,56.7177 593.44,56.807 593.96,56.8974 594.48,56.9888 595,57.0812 595.52,57.1748 596.04,57.2694 596.56,57.3651 597.08,57.4619 597.6,57.5599 598.12,57.6589 598.64,57.7591 599.16,57.8605 599.68,57.9631 600.2,58.0668 600.72,58.1717 601.24,58.2779 601.76,58.3853 602.28,58.4939 602.8,58.6038 603.32,58.7149 603.84,58.8274 604.36,58.9411 604.88,59.0562 605.4,59.1725 605.92,59.2903 606.44,59.4093 606.96,59.5298 607.48,59.6517 608,59.775 608.52,59.8997 609.04,60.0258 609.56,60.1535 610.08,60.2825 610.6,60.4131 611.12,60.5452 611.64,60.6789 612.16,60.814 612.68,60.9508 613.2,61.0891 613.72,61.2291 614.24,61.3706 614.76,61.5138 615.28,61.6586 615.8,61.8052 616.32,61.9534 616.84,62.1034 617.36,62.2551 617.88,62.4086 618.4,62.5638 618.92,62.7209 619.44,62.8797 619.96,63.0404 620.48,63.203 621,63.3675 621.52,63.5339 622.04,63.7023 622.56,63.8725 623.08,64.0448 623.6,64.2191 624.12,64.3954 624.64,64.5738 625.16,64.7543 625.68,64.9368 626.2,65.1215 626.72,65.3084 627.24,65.4975 627.76,65.6887 628.28,65.8822 628.8,66.078 629.32,66.2761 629.84,66.4765 630.36,66.6793 630.88,66.8844 631.4,67.092 631.92,67.302 632.44,67.5145 632.96,67.7295 633.48,67.9471 634,68.1672 634.52,68.39 635.04,68.6154 635.56,68.8435 636.08,69.0743 636.6,69.3079 637.12,69.5443 637.64,69.7835 638.16,70.0256 638.68,70.2706 639.2,70.5185 639.72,70.7695 640.24,71.0236 640.76,71.2807 641.28,71.5409 641.8,71.8043 642.32,72.071 642.84,72.341 643.36,72.6142 643.88,72.8909 644.4,73.171 644.92,73.4546 645.44,73.7418 645.96,74.0326 646.48,74.3271 647,74.6253 647.52,74.9273 648.04,75.2332 648.56,75.543 649.08,75.8569 649.6,76.1748 650.12,76.497 650.64,76.8234 651.16,77.1542 651.68,77.4893 652.2,77.829 652.72,78.1734 653.24,78.5224 653.76,78.8763 654.28,79.2351 654.8,79.599 655.32,79.9681 655.84,80.3424 656.36,80.7222 656.88,81.1075 657.4,81.4986 657.92,81.8956 658.44,82.2985 658.96,82.7077 659.48,83.1233 660,83.5454 660.52,83.9744 661.04,84.4103 661.56,84.8534 662.08,85.3039 662.6,85.7622 663.12,86.2285 663.64,86.703 664.16,87.1861 664.68,87.678 665.2,88.1792 665.72,88.69 666.24,89.2108 666.76,89.742 667.28,90.2841 667.8,90.8375 668.32,91.4028 668.84,91.9806 669.36,92.5714 669.88,93.1758 670.4,93.7947 670.92,94.4287 671.44,95.0787 671.96,95.7456 672.48,96.4302 673,97.1338 673.52,97.8573 674.04,98.6021 674.56,99.3696 675.08,100.161 675.6,100.978 676.12,101.823 676.64,102.697 677.16,103.603 677.68,104.543 678.2,105.52 678.72,106.536 679.24,107.595 679.76,108.701 680.28,109.857 680.8,111.069 681.32,112.34 681.84,113.678 682.36,115.088 682.88,116.577 683.4,118.155 683.92,119.83 684.44,121.613 684.96,123.516 685.48,125.554 686,127.743 686.52,130.101 687.04,132.65 687.56,135.415 688.08,138.424 688.6,141.712 689.12,145.316 689.64,149.281 690.16,153.656 690.68,158.499 691.2,163.871 691.72,169.84 692.24,176.473 692.76,183.833 693.28,191.967 693.8,200.898 694.32,210.605 694.84,221.009 695.36,231.965 695.88,243.26 696.4,254.639 696.92,265.834 697.44,276.602 697.96,286.755 698.48,296.17 699,304.792 699.52,312.617 700.04,319.678 700.56,326.03 701.08,331.739 701.6,336.872 702.12,341.495 702.64,345.667 703.16,349.444 703.68,352.873 704.2,355.996 704.72,358.85 705.24,361.467 705.76,363.873 706.28,366.093 706.8,368.147 707.32,370.053 707.84,371.825 708.36,373.479 708.88,375.024 709.4,376.472 709.92,377.832 710.44,379.112 710.96,380.318 711.48,381.456 712,382.533 712.52,383.554 713.04,384.522 713.56,385.441 714.08,386.316 714.6,387.149 715.12,387.943 715.64,388.701 716.16,389.426 716.68,390.118 717.2,390.781 717.72,391.415 718.24,392.024 718.76,392.607 719.28,393.167 719.8,393.705 720.32,394.222 720.84,394.719 721.36,395.197 721.88,395.658 722.4,396.101 722.92,396.527 723.44,396.938 723.96,397.335 724.48,397.717 725,398.086 725.52,398.441 726.04,398.785 726.56,399.116 727.08,399.436 727.6,399.746 728.12,400.044 728.64,400.333 729.16,400.612 729.68,400.882 730.2,401.144 730.72,401.396 731.24,401.641 731.76,401.878 732.28,402.107 732.8,402.329 733.32,402.545 733.84,402.753 734.36,402.956 734.88,403.152 735.4,403.343 735.92,403.529 736.44,403.709 736.96,403.884 737.48,404.054 738,404.22 738.52,404.382 739.04,404.539 739.56,404.693 740.08,404.843 740.6,404.99 741.12,405.133 741.64,405.274 742.16,405.412 742.68,405.547 743.2,405.68 743.72,405.811 744.24,405.94 744.76,406.067 745.28,406.193 745.8,406.317 746.32,406.44 746.84,406.562 747.36,406.683 747.88,406.803 748.4,406.923 748.92,407.043 749.44,407.163 749.96,407.283 750.48,407.403 751,407.523 751.52,407.644 752.04,407.766 752.56,407.889 753.08,408.013 753.6,408.138 754.12,408.265 754.64,408.393 755.16,408.524 755.68,408.656 756.2,408.79 756.72,408.927 757.24,409.067 757.76,409.209 758.28,409.354 758.8,409.502 759.32,409.653 759.84,409.808 760.36,409.966 760.88,410.129 761.4,410.295 761.92,410.465 762.44,410.64 762.96,410.819 763.48,411.003 764,411.192 764.52,411.386 765.04,411.585 765.56,411.79 766.08,412.001 766.6,412.218 767.12,412.441 767.64,412.67 768.16,412.906 768.68,413.149 769.2,413.399 769.72,413.656 770.24,413.921 770.76,414.193 771.28,414.474 771.8,414.763 772.32,415.061 772.84,415.368 773.36,415.684 773.88,416.009 774.4,416.344 774.92,416.69 775.44,417.046 775.96,417.413 776.48,417.79 777,418.18 777.52,418.581 778.04,418.995 778.56,419.422 779.08,419.862 779.6,420.315 780.12,420.782 780.64,421.264 781.16,421.761 781.68,422.274 782.2,422.802 782.72,423.348 783.24,423.91 783.76,424.491 784.28,425.09 784.8,425.708 785.32,426.346 785.84,427.004 786.36,427.684 786.88,428.386 787.4,429.11 787.92,429.859 788.44,430.632 788.96,431.431 789.48,432.256 790,433.109 790.52,433.99 791.04,434.901 791.56,435.843 792.08,436.816 792.6,437.823 793.12,438.865 793.64,439.941 794.16,441.055 794.68,442.208 795.2,443.4 795.72,444.634 796.24,445.91 796.76,447.231 797.28,448.597 797.8,450.011 798.32,451.474 798.84,452.987 799.36,454.552 799.88,456.171 800.4,457.845 800.92,459.575 801.44,461.363 801.96,463.21 802.48,465.117 803,467.086 803.52,469.115 804.04,471.207 804.56,473.362 805.08,475.579 805.6,477.858 806.12,480.198 806.64,482.599 807.16,485.057 807.68,487.572 808.2,490.141 808.72,492.759 809.24,495.425 809.76,498.132 810.28,500.877 810.8,503.653 811.32,506.454 811.84,509.275 812.36,512.107 812.88,514.943 813.4,517.775 813.92,520.596 814.44,523.396 814.96,526.168 815.48,528.902 816,531.59 816.52,534.224 817.04,536.795 817.56,539.296 818.08,541.718 818.6,544.054 819.12,546.297 819.64,548.439 820.16,550.475 820.68,552.396 821.2,554.198 821.72,555.872 822.24,557.414 822.76,558.816 823.28,560.072 823.8,561.173 824.32,562.114 824.84,562.885 825.36,563.478 825.88,563.881 826.4,564.085 826.92,564.076 827.44,563.84 827.96,563.361 828.48,562.621 829,561.598 829.52,560.271 830.04,558.613 830.56,556.595 831.08,554.188 831.6,551.357 832.12,548.069 832.64,544.289 833.16,539.986 833.68,535.135 834.2,529.721 834.72,523.743 835.24,517.224 835.76,510.212 836.28,502.783 836.8,495.044 837.32,487.124 837.84,479.166 838.36,471.314 838.88,463.698 839.4,456.426 839.92,449.577 840.44,443.202 840.96,437.323 841.48,431.941 842,427.043 842.52,422.601 843.04,418.585 843.56,414.959 844.08,411.689 844.6,408.739 845.12,406.079 845.64,403.678 846.16,401.509 846.68,399.548 847.2,397.773 847.72,396.164 848.24,394.704 848.76,393.378 849.28,392.172 849.8,391.075 850.32,390.074 850.84,389.162 851.36,388.329 851.88,387.568 852.4,386.873 852.92,386.236 853.44,385.654 853.96,385.122 854.48,384.634 855,384.187 855.52,383.779 856.04,383.405 856.56,383.062 857.08,382.749 857.6,382.464 858.12,382.203 858.64,381.965 859.16,381.749 859.68,381.553 860.2,381.375 860.72,381.214 861.24,381.069 861.76,380.939 862.28,380.824 862.8,380.721 863.32,380.63 863.84,380.551 864.36,380.482 864.88,380.424 865.4,380.375 865.92,380.336 866.44,380.304 866.96,380.281 867.48,380.265 868,380.257 868.52,380.255 869.04,380.26 869.56,380.272 870.08,380.289 870.6,380.311 871.12,380.34 871.64,380.373 872.16,380.411 872.68,380.455 873.2,380.502 873.72,380.555 874.24,380.611 874.76,380.672 875.28,380.737 875.8,380.805 876.32,380.878 876.84,380.954 877.36,381.034 877.88,381.117 878.4,381.203 878.92,381.293 879.44,381.387 879.96,381.483 880.48,381.583 881,381.685 881.52,381.791 882.04,381.9 882.56,382.011 883.08,382.126 883.6,382.244 884.12,382.364 884.64,382.487 885.16,382.613 885.68,382.742 886.2,382.873 886.72,383.007 887.24,383.144 887.76,383.284 888.28,383.426 888.8,383.571 889.32,383.719 889.84,383.869 890.36,384.022 890.88,384.178 891.4,384.336 891.92,384.497 892.44,384.661 892.96,384.827 893.48,384.996 894,385.168 894.52,385.342 895.04,385.519 895.56,385.698 896.08,385.881 896.6,386.066 897.12,386.253 897.64,386.444 898.16,386.637 898.68,386.832 899.2,387.031 899.72,387.232 900.24,387.436 900.76,387.643 901.28,387.852 901.8,388.065 902.32,388.28 902.84,388.498 903.36,388.718 903.88,388.942 904.4,389.168 904.92,389.398 905.44,389.63 905.96,389.865 906.48,390.103 907,390.344 907.52,390.588 908.04,390.835 908.56,391.085 909.08,391.337 909.6,391.593 910.12,391.852 910.64,392.114 911.16,392.379 911.68,392.647 912.2,392.918 912.72,393.192 913.24,393.47 913.76,393.75 914.28,394.034 914.8,394.32 915.32,394.61 915.84,394.903 916.36,395.2 916.88,395.499 917.4,395.802 917.92,396.108 918.44,396.417 918.96,396.73 919.48,397.046 920,397.365 920.52,397.687 921.04,398.013 921.56,398.342 922.08,398.675 922.6,399.01 923.12,399.35 923.64,399.692 924.16,400.038 924.68,400.387 925.2,400.74 925.72,401.096 926.24,401.456 926.76,401.819 927.28,402.186 927.8,402.555 928.32,402.929 928.84,403.306 929.36,403.686 929.88,404.07 930.4,404.457 930.92,404.847 931.44,405.242 931.96,405.639 932.48,406.04 933,406.445 933.52,406.852 934.04,407.264 934.56,407.679 935.08,408.097 935.6,408.519 936.12,408.944 936.64,409.372 937.16,409.804 937.68,410.24 938.2,410.678 938.72,411.12 939.24,411.566 939.76,412.015 940.28,412.467 940.8,412.922 941.32,413.381 941.84,413.843 942.36,414.308 942.88,414.776 943.4,415.248 943.92,415.723 944.44,416.201 944.96,416.682 945.48,417.166 946,417.654 946.52,418.144 947.04,418.637 947.56,419.133 948.08,419.633 948.6,420.135 949.12,420.64 949.64,421.148 950.16,421.658 950.68,422.172 951.2,422.688 951.72,423.206 952.24,423.727 952.76,424.251 953.28,424.778 953.8,425.306 954.32,425.838 954.84,426.371 955.36,426.907 955.88,427.445 956.4,427.985 956.92,428.528 957.44,429.072 957.96,429.619 958.48,430.167 959,430.718 959.52,431.27 960.04,431.824 960.56,432.379 961.08,432.937 961.6,433.496 962.12,434.056 962.64,434.618 963.16,435.181 963.68,435.745 964.2,436.311 964.72,436.878 965.24,437.446 965.76,438.015 966.28,438.585 966.8,439.155 967.32,439.727 967.84,440.299 968.36,440.872 968.88,441.445 969.4,442.019 969.92,442.593 970.44,443.168 970.96,443.743 971.48,444.318 972,444.893 " />
</g>

<g fill="#ffffff" fill-opacity="1" stroke="none" transform="matrix(7.5e-05,0,0,7.5e-05,-61.8,-20.9812)"
font-family="Arial" font-size="16" font-weight="700" font-style="normal"
>
<path vector-effect="none" fill-rule="evenodd" d="M1.51e+06,5.31e+06 L1.51e+06,5.65e+06 L3.6e+06,5.65e+06 L3.6e+06,5.31e+06 L1.51e+06,5.31e+06"/>
</g>

<g fill="#1171be" fill-opacity="1" stroke="#1171be" stroke-opacity="1" stroke-width="2" stroke-linecap="butt" stroke-linejoin="round" transform="matrix(0.75,0,0,0.75,-61.8,-20.9812)"
font-family="Arial" font-size="16" font-weight="700" font-style="normal"
>
<polyline fill="none" vector-effect="none" points="155,540.362 195,540.362 " />
</g>

<g fill="#dd5400" fill-opacity="1" stroke="#dd5400" stroke-opacity="1" stroke-width="2" stroke-linecap="butt" stroke-linejoin="round" transform="matrix(0.75,0,0,0.75,-61.8,-20.9812)"
font-family="Arial" font-size="16" font-weight="700" font-style="normal"
>
<polyline fill="none" vector-effect="none" points="155,555.638 195,555.638 " />
</g>

<g fill="#212121" fill-opacity="1" stroke="#212121" stroke-opacity="1" stroke-width="1" stroke-linecap="square" stroke-linejoin="bevel" transform="matrix(0.75,0,0,0.75,86.7,387.665)"
font-family="Arial" font-size="13" font-weight="400" font-style="normal"
>
<text fill="#212121" fill-opacity="1" stroke="none" xml:space="preserve" x="0" y="0" font-family="Arial" font-size="13" font-weight="400" font-style="normal"
 >MATLAB behavioural</text>
</g>

<g fill="#212121" fill-opacity="1" stroke="#212121" stroke-opacity="1" stroke-width="1" stroke-linecap="square" stroke-linejoin="bevel" transform="matrix(0.75,0,0,0.75,86.7,399.122)"
font-family="Arial" font-size="13" font-weight="400" font-style="normal"
>
<text fill="#212121" fill-opacity="1" stroke="none" xml:space="preserve" x="0" y="0" font-family="Arial" font-size="13" font-weight="400" font-style="normal"
 >LTspice OP27 macromodel</text>
</g>

<g fill="none" stroke="#212121" stroke-opacity="1" stroke-width="1.33333" stroke-linecap="butt" stroke-linejoin="miter" stroke-miterlimit="5" transform="matrix(0.75,0,0,0.75,-61.8,-20.9812)"
font-family="Arial" font-size="13" font-weight="400" font-style="normal"
>
<path vector-effect="none" fill-rule="evenodd" d="M151,565 L151,531 L360,531 L360,565 L151,565"/>
</g>
</g>
</svg>
